<?xml version="1.0" encoding="utf-8"?>
<!DOCTYPE svg PUBLIC "-//W3C//DTD SVG 1.0//EN" "http://www.w3.org/TR/2001/REC-SVG-20010904/DTD/svg10.dtd">
<svg version="1.0" xmlns="http://www.w3.org/2000/svg" width="271px" height="271px" viewBox="0 0 271 271" preserveAspectRatio="xMidYMid meet">
 <g fill="#ffffff">
  <path d="M177.3 196 c-1.8 -0.4 -3.9 -1.2 -4.5 -1.7 -1.9 -1.5 -10.6 -4 -16.3 -4.8 -11.4 -1.5 -24.9 -7.4 -28.7 -12.5 -2.5 -3.5 -6.7 -6.2 -12.4 -8 -2.1 -0.7 -4.3 -1.6 -4.8 -2.1 -0.6 -0.5 -2.1 -0.9 -3.3 -0.9 -4.2 0 -8.1 -2.7 -9.4 -6.7 -2.7 -8.3 0.7 -32.5 6.4 -45.4 1.9 -4.3 2.4 -6.7 2 -10.2 -0.7 -5.8 1.5 -9.5 10 -17.3 7.9 -7.1 19.8 -13 30.8 -15.1 11.2 -2.1 28.8 -1.3 38.2 1.6 14.9 4.8 27.7 15.3 36.1 29.8 3.8 6.5 4.6 8.6 4.6 13 0 4.1 -0.4 5.5 -1.9 6.4 -1.5 1 -1.7 1.8 -1 4.8 1.5 6.3 1 33.3 -0.6 41.3 -1.8 8.2 -3.5 11.4 -7.1 13 -1.8 0.9 -2.4 1.9 -2.4 4.5 0 1.8 -0.4 3.3 -1 3.3 -0.5 0 -1 1.1 -1 2.4 0 2.6 -2.1 3.6 -7.7 3.6 -1.7 0 -3.5 0.5 -3.8 1 -0.7 1.2 -17.4 1.2 -22.2 0z m23.7 -11.1 c0 -1 0.3 -1.9 0.8 -1.9 0.4 0 0.6 -1.8 0.4 -4 -0.4 -3.8 -0.3 -4 2.3 -4 6.5 0 9.6 -5.1 11.6 -19.6 1 -7.4 1 -10.7 0 -17.5 -2.5 -15.9 -2.6 -20.1 -0.6 -21.5 1.8 -1.3 1.8 -1.5 -0.1 -4.9 -3.8 -7.1 -11.7 -16.6 -17.5 -21.1 -23.1 -17.8 -53.9 -16.1 -75.8 4.2 l-5.9 5.5 0.5 5.3 c0.5 4.4 0.2 5.9 -1.9 9.2 -5.2 8.5 -8.6 19.4 -9.5 30.5 -0.7 8.6 0.4 11.5 4.5 12.5 7.3 1.8 20.8 8.8 26 13.4 6.3 5.6 17 10.3 26.2 11.5 3 0.4 6.6 1.3 8 2 3.6 1.8 13 3 13 1.6 0 -1.5 7.5 -1.4 8.8 0.2 0.7 0.8 2.6 1.1 5.1 0.9 3.2 -0.3 4.1 -0.8 4.1 -2.3z"/>
  <path d="M176.7 162.4 c-5.1 -2.8 -16.8 -4.6 -29.4 -4.7 l-12.3 -0.1 0 -3.1 c0 -1.7 0.5 -3.6 1.2 -4.3 2 -2 27.8 -1.6 37.2 0.7 9.8 2.4 13 4.6 13.4 9.4 0.3 3.7 0.3 3.7 -3.5 3.7 -2.1 -0.1 -5.1 -0.8 -6.6 -1.6z"/>
  <path d="M177 139.5 l0 -6.6 5.8 0.3 5.7 0.3 0.3 5 c0.4 6 -1.1 7.5 -7.5 7.5 l-4.3 0 0 -6.5z"/>
  <path d="M136.6 140.4 c-1 -2.7 -0.7 -8.9 0.7 -10.8 1 -1.3 2.4 -1.7 5.7 -1.4 l4.5 0.3 0.3 5.6 c0.3 5.1 0.1 5.6 -2.3 6.7 -3.7 1.7 -8.2 1.5 -8.9 -0.4z"/>
 </g>
 <g fill="#fff2f7">
  <path d="M181 194.7 c0 -0.8 -0.6 -1.8 -1.2 -2 -0.8 -0.3 -0.7 -0.6 0.4 -0.6 0.9 -0.1 2 0.4 2.3 0.9 0.9 1.5 4.5 1.2 5.1 -0.5 0.5 -1.3 1 -1.3 3.6 0.1 2.3 1.2 3.6 1.3 5.2 0.6 3.2 -1.6 9.6 -2 9.6 -0.6 0 0.7 -2.7 1.4 -6.7 1.7 -3.8 0.4 -9.4 1 -12.5 1.3 -4.9 0.6 -5.8 0.4 -5.8 -0.9z"/>
  <path d="M168 192.2 c0 -0.8 -6.1 -2.7 -12 -3.7 -6.5 -1.1 -12 -2.8 -12 -3.6 0 -0.5 -0.9 -0.9 -2 -0.9 -2.6 0 -8 -2.7 -8 -4 0 -0.6 -0.7 -1 -1.5 -1 -0.9 0 -1.5 -0.9 -1.5 -2.2 0 -1.9 0.1 -2 1.8 -0.6 5 4.5 18 9.4 27.1 10.2 5.4 0.5 5.3 0.5 -1.4 -0.8 -9.5 -1.9 -19.2 -5.9 -24 -10.1 l-4 -3.4 3.8 -0.1 c2 0 3.7 0.3 3.7 0.8 0 0.4 1.4 1.3 3 2 1.7 0.8 3.6 1.9 4.3 2.6 0.6 0.7 5.7 2.2 11.2 3.5 5.5 1.2 11.4 2.6 13 3.1 5.6 1.7 13.5 2.3 13.5 1.1 0 -0.6 1.6 -1.1 3.5 -1.1 2.4 0 3.5 0.5 3.5 1.4 0 1.6 2.9 2.3 7.8 1.7 2.6 -0.3 3.2 -0.8 3.2 -2.7 0 -1.3 0.5 -2.4 1 -2.4 0.6 0 1 -1.1 1 -2.5 0 -1.8 0.5 -2.5 2 -2.5 1.1 0 2 -0.6 2 -1.2 0 -0.7 1.3 -2.2 2.8 -3.2 3.2 -2.1 4.8 -6.9 5.9 -16.7 0.5 -4.9 0.9 -5.9 2.4 -5.9 2.3 0 2.3 1 0.5 11.7 -2.2 12.4 -4.9 16.3 -11.1 16.3 l-2.6 0 2.2 3.1 c1.8 2.6 1.9 3.3 0.8 4 -0.8 0.5 -2 0.9 -2.8 0.9 -1.1 0 -1.1 0.3 -0.1 1.5 1.7 2.1 0.7 2.8 -4.1 3.1 -2.2 0.1 -4.3 0.4 -4.6 0.8 -1.2 1.2 -4.1 0.6 -6.6 -1.4 -3.3 -2.6 -3.7 -2.5 -3.7 0.5 0 2.8 -0.7 3 -3.4 1 -1.1 -0.8 -2.9 -1.2 -4.2 -0.9 -1.2 0.3 -2.5 0.1 -2.8 -0.5 -0.4 -0.6 -1.5 -1.1 -2.4 -1.1 -1.1 0 -0.6 0.6 1.3 1.6 1.6 0.8 3.1 1.6 3.2 1.8 0.2 0.2 -1.9 0.4 -4.7 0.5 -2.7 0.1 -5 -0.2 -5 -0.7z"/>
  <path d="M207.5 188 c-0.3 -0.6 0.1 -1.3 0.9 -1.6 1.9 -0.7 2.1 -3.5 0.5 -5.1 -0.9 -0.9 -0.3 -1.5 2.4 -2.6 1.9 -0.9 4.2 -2.6 5.1 -3.9 1.8 -2.8 4.6 -15.3 4.6 -20.9 0 -2.1 0.5 -3.9 1 -3.9 0.6 0 1 1.5 1 3.3 0 5.2 -2.9 20.2 -4 20.5 -0.5 0.2 -1 1.3 -1 2.3 0 1.2 -1.3 2.7 -3 3.7 -2.3 1.3 -3 2.4 -3 4.8 0 2 -0.6 3.4 -1.6 3.8 -2.1 0.8 -2.2 0.8 -2.9 -0.4z"/>
  <path d="M123 171.1 c0 -0.6 -1.1 -1.1 -2.5 -1.1 -1.4 0 -2.5 -0.4 -2.5 -1 0 -0.5 -0.9 -1 -2 -1 -1.1 0 -2 -0.4 -2 -1 0 -0.5 -1.1 -1 -2.5 -1 -1.4 0 -2.5 -0.4 -2.5 -1 0 -0.5 -1.3 -1 -3 -1 -4.2 0 -7 -3.1 -6.9 -7.7 l0 -3.8 1.9 4.1 c1.9 4.2 6.1 7 9.7 6.2 1.2 -0.3 0.3 -0.9 -2.4 -1.7 -4.2 -1.1 -6.3 -3.4 -6.3 -6.5 0 -2.5 2.7 -1.9 5.8 1.4 1.8 1.9 3.9 3 5.6 3 1.4 0 2.6 0.5 2.6 1 0 0.6 1.1 1 2.5 1 1.4 0 2.5 0.5 2.5 1 0 0.6 0.9 1 2 1 1.1 0 2 0.5 2 1 0 0.6 1.2 1 2.6 1 2.3 0 2.5 0.3 2.2 3.3 -0.3 2.8 -0.7 3.2 -3.5 3.5 -1.9 0.2 -3.3 -0.1 -3.3 -0.7z m6 -0.6 c0 -0.2 -1.3 -1.1 -3 -2 -3.8 -1.9 -4 -1.1 -0.2 0.9 3.1 1.7 3.2 1.8 3.2 1.1z m-12.3 -6.1 c-1.6 -0.9 -3.1 -1.3 -3.4 -1 -0.3 0.3 0.5 1 1.8 1.5 3.7 1.5 4.7 1.2 1.6 -0.5z"/>
  <path d="M170.5 160.5 c-2.2 -0.8 -5.2 -1.4 -6.7 -1.4 -2.1 -0.1 -2.8 -0.6 -2.8 -2.2 0 -1.8 0.4 -2 4.8 -1.3 6.5 0.9 14.5 3.7 15 5.2 0.5 1.6 -4.9 1.4 -10.3 -0.3z"/>
  <path d="M136.3 157.3 c-0.7 -0.2 -1.3 -2 -1.3 -3.9 0 -3.2 0.2 -3.4 3.3 -3.3 1.7 0.1 4.3 0.5 5.7 0.9 2.4 0.8 2.4 0.8 -0.6 0.9 -1.7 0.1 -3.7 0.7 -4.3 1.5 -1 1.2 -0.6 1.3 2.9 0.9 3.6 -0.5 4 -0.3 4 1.6 0 1.8 -0.6 2.1 -4.2 2 -2.4 0 -4.9 -0.3 -5.5 -0.6z"/>
  <path d="M149 156.6 c0 -0.8 -0.6 -1.7 -1.2 -1.9 -1.8 -0.8 5.3 -0.8 8 -0.1 4.1 1.1 2.6 3.4 -2.3 3.4 -3.2 0 -4.5 -0.4 -4.5 -1.4z"/>
  <path d="M178 156.1 c-0.8 -0.5 -5 -1.7 -9.2 -2.6 -5.2 -1.1 -7.8 -2.2 -7.8 -3.1 0 -1.7 2.8 -1.8 10.2 -0.3 4.1 0.8 5.8 1.7 6.1 3 0.3 1.1 1.2 1.9 2.1 1.9 0.9 0 1.6 0.5 1.6 1 0 1.2 -1 1.2 -3 0.1z"/>
  <path d="M147 150 c0 -1.7 0.7 -2 4 -2 2.8 0 4 0.4 4 1.4 0 0.8 0.8 1.7 1.8 1.9 0.9 0.3 -0.9 0.5 -4 0.6 -5.2 0.1 -5.8 -0.1 -5.8 -1.9z"/>
  <path d="M99.4 139 c0.6 -8.1 4 -21.3 5.6 -21.8 0.6 -0.2 1 -1.5 1 -2.8 0 -1.5 0.6 -2.4 1.5 -2.4 1.4 0 1.5 -1 0.9 -6 -0.5 -4.3 -0.3 -6 0.5 -6 0.7 0 0.9 0.5 0.6 1 -0.4 0.6 0.1 2.2 0.9 3.6 1.6 2.3 1.5 2.8 -1.9 9.8 -3.7 7.7 -7.5 20.8 -7.5 26 0 1.7 -0.5 3.8 -1.1 4.6 -0.8 1.1 -0.9 -0.5 -0.5 -6z"/>
  <path d="M102.4 140.1 c1.2 -10.4 5.3 -22.2 10.6 -30.8 1.2 -1.9 1.2 -2.4 -0.3 -4.1 -2.9 -3.2 -2 -5.2 5.6 -12.6 9.5 -9.4 20.1 -15 26.4 -14 3.4 0.5 4.3 0.3 4.3 -0.9 0 -0.8 1 -1.7 2.3 -2.1 4.1 -1.1 5.7 -0.7 5.7 1.4 0 1.6 -0.7 2 -3.2 2 -2.5 0 -2.9 0.3 -2 1.2 1.4 1.4 1.6 8.6 0.3 10.6 -0.5 0.9 -2.5 1.2 -6.2 1 l-5.4 -0.3 -0.3 -4.2 -0.3 -4.2 -3.7 1.7 c-2 0.9 -4.3 2.3 -5 3 -0.7 0.6 -2.2 1.2 -3.3 1.2 -1 0 -1.9 0.6 -1.9 1.3 0 0.8 -2.5 3.7 -5.5 6.5 -5.6 5.3 -6.7 7.2 -4 7.2 1 0 1.5 1.1 1.5 3.5 0 1.9 -0.4 3.5 -1 3.5 -0.5 0 -1 0.7 -1 1.5 0 0.8 -0.7 1.5 -1.5 1.5 -0.9 0 -1.5 0.9 -1.5 2.5 0 1.4 -0.4 2.5 -0.9 2.5 -0.5 0 -1.1 1.2 -1.4 2.8 -0.3 1.5 -1.5 6 -2.6 10.1 -1.2 4.1 -2.1 9 -2.1 10.8 0 2.7 -0.4 3.3 -2.1 3.3 -2 0 -2.1 -0.3 -1.5 -5.9z"/>
  <path d="M215.1 134.8 c-2.5 -16.3 -2.5 -17.5 -0.1 -18.8 1.6 -0.9 1.9 -1.5 1.1 -2.3 -0.6 -0.6 -1.1 -1.9 -1.1 -2.9 0 -1 -0.4 -1.8 -1 -1.8 -0.5 0 -1 -0.7 -1 -1.5 0 -0.8 -0.4 -1.5 -1 -1.5 -0.5 0 -1 -0.7 -1 -1.5 0 -0.8 -0.4 -1.5 -1 -1.5 -0.5 0 -1 -1.1 -1 -2.5 0 -1.7 -0.6 -2.5 -1.7 -2.5 -2 0 -7.3 -4.8 -7.3 -6.7 0 -0.7 -0.9 -1.3 -2 -1.3 -1.1 0 -2 -0.6 -2 -1.4 0 -0.7 -1.3 -1.6 -3 -1.9 -1.8 -0.4 -3 -1.3 -3 -2.2 0 -1 -1 -1.5 -3 -1.5 -2.5 0 -3 -0.4 -3 -2.5 0 -2.2 0.2 -2.4 2.5 -1.5 12.9 4.9 25 16.4 33 31.5 l3 5.6 -2.8 2.3 -2.9 2.3 1.6 9.3 c2 11.9 2 13 -0.2 13 -1.5 0 -2 -1.5 -3.1 -8.2z"/>
  <path d="M221 138.3 c0 -2.7 -0.7 -7.5 -1.5 -10.8 -1.4 -6 -1.4 -6 1 -7.8 3.4 -2.5 3.1 -4.7 -1.1 -12.3 -8.3 -14.8 -20.6 -25.8 -34.4 -30.7 -0.8 -0.3 0.2 -0.6 2.3 -0.6 2.7 -0.1 3.7 0.3 3.7 1.4 0 0.9 0.9 1.5 2.4 1.5 3.5 0 5.6 1 5.6 2.6 0 0.8 0.9 1.4 2 1.4 1.1 0 2 0.7 2 1.5 0 0.8 0.8 1.5 1.7 1.5 2.5 0 7.3 5 7.3 7.7 0 1.6 0.6 2.3 2 2.3 1.1 0 2 0.7 2 1.5 0 0.8 0.5 1.5 1 1.5 0.6 0 1 0.7 1 1.5 0 0.8 0.5 1.5 1 1.5 0.6 0 1 0.9 1 2 0 1.1 0.4 2 1 2 1.6 0 4 5.7 4 9.6 0 2.5 -0.7 4.3 -2.1 5.5 -1.9 1.7 -2 2.2 -1 8.8 1.4 8.7 1.4 13.1 0.1 13.1 -0.5 0 -1 -2.1 -1 -4.7z"/>
  <path d="M136 135.8 c0 -7.6 0.7 -8.2 7.4 -7.4 l5.6 0.7 0 4 c0 2.1 -0.4 3.9 -1 3.9 -0.5 0 -1 0.9 -1 2 0 1.8 -0.7 2 -5.5 2 l-5.5 0 0 -5.2z m8.8 -1.7 c-0.2 -1.5 -1 -2.7 -2 -2.9 -2.1 -0.4 -4.1 3.2 -3.3 5.8 0.5 1.6 1 1.8 3.1 0.8 1.9 -0.9 2.4 -1.8 2.2 -3.7z"/>
  <path d="M178 135.5 c0 -3.5 0 -3.5 4.5 -3.5 l4.5 0 0 3.8 c-0.1 3 -0.3 3.4 -1.1 2 -1.2 -2.2 -5.9 -2.4 -5.9 -0.3 0 0.8 -0.4 1.5 -1 1.5 -0.5 0 -1 -1.6 -1 -3.5z"/>
  <path d="M110 97 c0 -2.7 8.7 -12 11.2 -12 1 0 1.8 -0.7 1.8 -1.5 0 -0.8 1.1 -1.7 2.5 -2.1 1.4 -0.3 2.5 -1 2.5 -1.4 0 -1.3 9.7 -5 13.2 -5 2.9 0 2.3 0.4 -4.4 3.4 -9.2 4 -16.1 8.9 -22.3 15.8 -3.8 4.3 -4.5 4.7 -4.5 2.8z"/>
  <path d="M171.8 79.3 c-3 -0.3 -3.8 -0.9 -3.8 -2.4 0 -2.2 1.7 -2.4 9 -0.8 3.1 0.7 5 1.6 5 2.5 0 1.4 -1.9 1.5 -10.2 0.7z"/>
  <path d="M176 74.4 c-8.6 -1.7 -9.2 -2.5 -1.6 -1.9 7.1 0.5 8.1 0.8 7.5 2.2 -0.2 0.4 -2.9 0.3 -5.9 -0.3z"/>
  <path d="M149 73 c0 -0.5 1.9 -1 4.3 -1 3.1 0 3.8 0.3 2.7 1 -2 1.3 -7 1.3 -7 0z"/>
 </g>
 <g fill="#fbddd1">
  <path d="M177 194.3 c-1.9 -0.3 -3.9 -0.9 -4.4 -1.4 -0.6 -0.5 -2.3 -0.9 -3.8 -0.9 -2.2 0 -2.8 -0.5 -2.8 -2.1 0 -1.6 0.4 -2 1.8 -1.4 1.3 0.5 1.2 0.1 -0.5 -1.4 -1.2 -1.2 -2.8 -1.8 -3.6 -1.5 -2.3 0.9 -14.7 -2.4 -21.4 -5.6 -3.4 -1.7 -8.3 -5 -11 -7.3 -2.6 -2.4 -5.6 -4.6 -6.5 -5 -2.7 -1 -2.1 0.1 1 1.7 l2.7 1.5 -3.7 0.1 c-2.1 0 -3.8 -0.4 -3.8 -1 0 -0.5 -1.1 -1 -2.5 -1 -1.4 0 -2.5 -0.4 -2.5 -0.8 0 -0.4 -2 -1.4 -4.5 -2.1 -2.5 -0.7 -4.5 -1.7 -4.5 -2.2 0 -1.4 4.4 -1 7.9 0.7 1.8 0.9 3.5 1.4 3.8 1.1 0.5 -0.6 -5.4 -3.3 -9.4 -4.3 -3.3 -0.9 -2.9 -3.4 0.6 -3.4 3.5 0 9.1 1.9 9.1 3.1 0 0.5 0.9 0.9 1.9 0.9 1.1 0 2.1 0.3 2.4 0.8 0.2 0.4 0.1 0 -0.1 -0.8 -0.3 -0.8 -0.7 -3.2 -1 -5.2 -0.3 -3.1 -0.8 -3.8 -2.6 -3.8 -2.6 0 -4.6 -4.5 -4.6 -10.2 0 -5.6 0.8 -6.8 4.7 -6.8 2.6 0 3.6 -0.5 4 -2 0.3 -1.1 0.9 -2 1.4 -2 0.5 0 0.9 -0.6 0.9 -1.4 0 -2.1 5.8 -6.6 8.6 -6.6 1.3 0 2.4 -0.6 2.4 -1.3 0 -0.9 2.6 -1.7 7.8 -2.5 10.8 -1.7 11.2 -1.6 11.2 1.3 0 2.3 0.3 2.5 4.9 2.5 2.8 0 5.3 -0.4 5.6 -1 0.3 -0.5 2 -1 3.6 -1 1.6 0 5.5 -0.9 8.6 -2 3.2 -1.1 7.3 -2 9.3 -2 3.5 0 3.6 0.1 6.4 7.3 1.6 3.9 3.2 9.8 3.5 13 0.4 3.1 1.3 6.3 1.9 6.9 0.9 0.9 1.2 0.9 1.2 0 0 -1.9 6.7 -1.5 7.4 0.4 1.1 3 0.6 9.5 -1 11.9 -1.2 1.8 -2.5 2.5 -5 2.5 -3 0 -3.4 0.4 -4.4 3.9 -2.5 9.4 -11.3 18.1 -20.7 20.7 l-4.8 1.3 5.6 0 c5.7 0.1 7.9 1.3 7.9 4.3 0 2.2 -1.8 2.3 -4.8 0.2 -1.2 -0.8 -2.2 -1 -2.2 -0.5 0 1.6 -2.1 1.3 -3.9 -0.3 -1.1 -1 -2.1 -1.2 -3.1 -0.6 -1.2 0.8 -1.1 1 0.5 1 1.1 0 2.8 0.7 3.8 1.5 1.1 0.7 2.5 1.1 3.3 0.8 0.8 -0.3 2 -0.1 2.7 0.5 0.6 0.5 2.1 1.2 3.2 1.5 2.4 0.6 -3.5 0.6 -8.5 0z m-2.4 -23.1 c2.2 -1.1 4.8 -2.9 5.8 -4.1 1.9 -2.1 1.9 -2.1 -1.2 -3.2 -1.8 -0.6 -3.2 -1.4 -3.2 -1.8 0 -0.4 -3.6 -1.4 -8 -2.1 -6.7 -1.1 -8 -1.7 -8 -3.2 0 -1.7 0.5 -1.8 4.8 -1.2 4.3 0.6 12.9 3 17.7 5 1.8 0.7 1.9 0.6 0.6 -1 -3.8 -4.6 -15.9 -7.7 -30.6 -7.7 -10.7 -0.1 -14.5 0.5 -14.5 2.2 0 0.7 2 0.8 5.4 0.4 6.4 -0.8 11.6 0.1 11.6 2.1 0 1.1 -1.8 1.4 -8.5 1.4 -4.8 0 -8.5 0.4 -8.5 1 0 1.6 5.9 7.8 9.8 10.2 8.1 5 19.2 5.9 26.8 2z m9.5 -29.2 c2.3 -1.3 2.5 -4.3 0.4 -6 -2.4 -2 -4.5 -0.4 -4.5 3.5 0 3.7 0.8 4.2 4.1 2.5z m-39 -6.8 c1.1 -2.7 -0.1 -4.2 -3.3 -4.2 -1.9 0 -3.4 4 -2.5 6.4 0.9 2.2 4.7 0.7 5.8 -2.2z"/>
  <path d="M192 193.9 c0 -0.5 0.5 -0.7 1.1 -0.3 0.6 0.3 2.2 0.1 3.5 -0.7 2.5 -1.3 4.1 -0.8 2.9 1 -0.8 1.4 -7.5 1.4 -7.5 0z"/>
  <path d="M204.8 191.7 c2.5 -0.8 3.2 -1.5 2.9 -2.9 -0.3 -1 -0.1 -2.1 0.4 -2.4 0.5 -0.3 0.9 1.1 0.9 3 0 3.5 -0.1 3.6 -3.7 3.5 l-3.8 -0.1 3.3 -1.1z"/>
  <path d="M190.4 190.1 c-5.6 -3.4 -5.4 -4.5 0.7 -3.8 3 0.4 6.2 0.7 7.2 0.7 2.6 0 2 2.3 -1 3.8 -3.4 1.5 -3.2 1.6 -6.9 -0.7z"/>
  <path d="M202 188 c0 -2.3 1 -2.6 2.8 -0.8 1.8 1.8 1.5 2.8 -0.8 2.8 -1.3 0 -2 -0.7 -2 -2z"/>
  <path d="M152.8 187.8 c-3.2 -0.7 -4.8 -1.5 -4.8 -2.5 0 -1 0.6 -1.3 1.8 -0.8 0.9 0.4 4.5 1.2 8 1.7 3.4 0.6 6.2 1.5 6.2 1.9 0 1.1 -5.1 1 -11.2 -0.3z"/>
  <path d="M210.2 184.5 c-0.1 -1.2 -0.7 -2.6 -1.3 -3.2 -0.8 -0.8 -0.8 -1.3 0.1 -1.8 1.7 -1.1 2.2 -0.1 1.7 3.7 -0.2 1.8 -0.5 2.4 -0.5 1.3z"/>
  <path d="M204 182 c0 -3.4 0.7 -3.8 2.6 -1.2 1.9 2.5 1.7 4.2 -0.6 4.2 -1.6 0 -2 -0.7 -2 -3z"/>
  <path d="M133 179 c0 -0.5 -0.7 -1 -1.5 -1 -0.9 0 -1.5 -0.9 -1.5 -2.2 l0 -2.1 2.3 2 c1.2 1.1 3.1 2.5 4.2 3.1 1.9 1.1 1.8 1.1 -0.7 1.2 -1.6 0 -2.8 -0.4 -2.8 -1z"/>
  <path d="M214 168.1 c0 -1 0.3 -3.9 0.6 -6.5 0.5 -3.7 1.1 -4.6 2.6 -4.6 2.1 0 2.1 0.5 0.2 10.3 -0.6 3 -3.4 3.7 -3.4 0.8z"/>
  <path d="M219 168.5 c0 -2.6 2.2 -11.6 2.7 -11.1 0.9 0.8 -0.8 12.6 -1.8 12.6 -0.5 0 -0.9 -0.7 -0.9 -1.5z"/>
  <path d="M99 155.3 c0 -4.2 0.3 -4.1 1.8 0.5 0.9 2.6 0.8 3.2 -0.4 3.2 -1 0 -1.4 -1.1 -1.4 -3.7z"/>
  <path d="M103 157.1 c-1.6 -3.1 -1.2 -5.1 1 -5.1 1.6 0 2 0.7 2 3.5 0 3.9 -1.4 4.6 -3 1.6z"/>
  <path d="M216 152 c0 -3.3 0.3 -4 2 -4 2.1 0 2.5 1.6 1.4 5.8 -1.1 3.9 -3.4 2.7 -3.4 -1.8z"/>
  <path d="M221 152 c0 -2.2 0.5 -4 1 -4 0.6 0 1 1.8 1 4 0 2.2 -0.4 4 -1 4 -0.5 0 -1 -1.8 -1 -4z"/>
  <path d="M216 141 c0 -4.5 2.3 -5.7 3.4 -1.7 1.1 4.1 0.7 5.7 -1.4 5.7 -1.7 0 -2 -0.7 -2 -4z"/>
  <path d="M221 141 c0 -2.2 0.5 -4 1 -4 0.6 0 1 1.8 1 4 0 2.2 -0.4 4 -1 4 -0.5 0 -1 -1.8 -1 -4z"/>
  <path d="M100.4 133.3 c0.4 -3.2 1.1 -5.9 1.6 -6.1 0.6 -0.2 1 -1.9 1 -3.8 0 -1.9 0.5 -3.4 1 -3.4 0.6 0 1 -1.1 1 -2.4 0 -1.4 0.7 -3.1 1.5 -4 0.8 -0.8 1.5 -2.2 1.5 -3 0 -0.9 0.6 -1.6 1.4 -1.6 1 0 0.5 2.1 -2 7.8 -1.8 4.2 -4.1 11 -5 15 -0.9 3.9 -1.8 7.2 -2.1 7.2 -0.3 0 -0.3 -2.6 0.1 -5.7z"/>
  <path d="M103 137.8 c0 -5.9 8.8 -28.8 11 -28.8 0.6 0 1 1.6 1 3.5 0 1.9 -0.4 3.5 -1 3.5 -0.5 0 -1 0.9 -1 1.9 0 1.1 -0.7 2.6 -1.5 3.5 -0.8 0.8 -1.5 2.4 -1.5 3.5 0 1.2 -0.4 2.1 -0.9 2.1 -0.4 0 -1.1 2.7 -1.5 6 -0.6 5.1 -1 6 -2.6 6 -1.1 0 -2 -0.5 -2 -1.2z"/>
  <path d="M214.6 131.4 c-0.9 -6.9 -0.8 -8.4 0.8 -8.4 1.4 0 1.8 1.1 3.2 9.3 0.5 3.2 0.4 3.7 -1.4 3.7 -1.5 0 -2.1 -0.9 -2.6 -4.6z"/>
  <path d="M220.1 130.4 c-1.3 -6.9 -1.4 -7.4 -0.2 -7.4 0.9 0 2.7 11.8 1.8 12.6 -0.2 0.2 -0.9 -2.1 -1.6 -5.2z"/>
  <path d="M214 108 c0 -2.3 -0.4 -3 -2 -3 -1.1 0 -2 -0.6 -2 -1.4 0 -0.8 -0.7 -1.6 -1.5 -2 -1 -0.3 -1.5 -1.9 -1.5 -4.2 0 -3.2 0.2 -3.5 1.6 -2.3 1.9 1.5 8.8 11.6 9.7 14.2 0.5 1.3 0.1 1.7 -1.8 1.7 -2.1 0 -2.5 -0.5 -2.5 -3z"/>
  <path d="M219 107.1 c-1.3 -2.6 -1.3 -3.1 0.5 -3.1 0.9 0 1.5 0.9 1.5 2.5 0 3 -0.6 3.2 -2 0.6z"/>
  <path d="M108.6 104.9 c-1.1 -5.8 -0.8 -7.9 1.4 -7.9 2 0 2 0.1 0.4 2.5 -1.5 2.3 -1.5 2.7 0 5 2 3 2 3.5 0.2 3.5 -0.7 0 -1.6 -1.4 -2 -3.1z"/>
  <path d="M113.1 105.4 c-1.2 -1.5 -2.1 -3.2 -2.1 -3.8 0.1 -1.1 4.2 -6 7.3 -8.5 1.5 -1.2 1.7 -1 1.7 1.8 0 2.6 -0.4 3.1 -2.5 3.1 -2.3 0 -2.4 0.2 -1.8 5 0.3 2.8 0.3 5 0 5 -0.3 0 -1.5 -1.2 -2.6 -2.6z"/>
  <path d="M213.8 98.6 c-3.2 -4 -3.4 -4.6 -1.3 -4.6 0.9 0 1.9 0.8 2.2 1.8 0.4 0.9 1.1 2 1.6 2.3 0.5 0.4 0.7 1.4 0.5 2.3 -0.2 1.2 -1 0.8 -3 -1.8z"/>
  <path d="M113 93 c0 -1.4 0.7 -2 2.2 -2 2 0 2.1 0.1 0.3 2 -1 1.1 -2 2 -2.2 2 -0.1 0 -0.3 -0.9 -0.3 -2z"/>
  <path d="M123.8 88 c4 -3.7 5.4 -3.8 5 -0.2 -0.3 2.4 -0.8 2.7 -4.3 3 l-4 0.2 3.3 -3z"/>
  <path d="M197 89.5 c0 -0.8 -0.9 -1.5 -2 -1.5 -1.1 0 -2 -0.7 -2 -1.5 0 -0.9 -0.9 -1.5 -2.4 -1.5 -1.4 0 -3.1 -0.6 -3.8 -1.3 -1.5 -1.4 -13.4 -4.7 -17.2 -4.7 -1.9 0 -2.6 -0.5 -2.6 -2 0 -1.9 0.4 -2 5.3 -1.4 10.4 1.3 26.1 8.4 30.7 13.9 1.1 1.3 0.7 1.5 -2.4 1.5 -2.5 0 -3.6 -0.4 -3.6 -1.5z"/>
  <path d="M121.2 85.3 c0.2 -1.2 1.4 -1.9 3.3 -2.1 l3 -0.4 -2.7 2.1 c-3.2 2.6 -4 2.6 -3.6 0.4z"/>
  <path d="M199 84 c-3.2 -2.7 -3.3 -2.9 -1.2 -3 1.3 0 2.2 0.6 2.2 1.5 0 0.8 0.9 1.5 2 1.5 1.1 0 2 0.7 2 1.5 0 2.1 -1 1.8 -5 -1.5z"/>
  <path d="M135.2 81.8 c0.6 -1.7 11 -5.3 17.6 -6.2 4.7 -0.6 5.2 -0.5 5.2 1.2 0 1.5 -1 2.1 -4.2 2.6 -10.3 1.5 -11.8 1.9 -11.8 2.7 0 0.5 -1.6 0.9 -3.6 0.9 -2.4 0 -3.4 -0.4 -3.2 -1.2z"/>
  <path d="M191.4 79.6 c-1.9 -1.4 -11.4 -4.4 -20.4 -6.5 -4.3 -1 -4.2 -1 2 -0.5 7.8 0.6 15 2.3 15 3.5 0 0.5 0.9 0.9 1.9 0.9 3 0 5.1 1.1 5.1 2.6 0 1.8 -1 1.8 -3.6 0z"/>
  <path d="M135 77.5 c0 -1 1 -1.5 2.9 -1.5 1.6 0 3.1 -0.5 3.3 -1 0.3 -1 10 -3 14.7 -3 4.1 0 1.8 0.9 -6 2.4 -4.1 0.8 -9.1 2.2 -11.1 3 -3.4 1.4 -3.8 1.5 -3.8 0.1z"/>
 </g>
 <g fill="#f2a6c7">
  <path d="M182 194.1 c0 -0.5 1 -0.7 2.1 -0.4 1.5 0.4 2.7 0 3.5 -1.2 1.3 -1.8 1.4 -1.8 1.4 0.3 0 1.8 -0.6 2.2 -3.5 2.2 -1.9 0 -3.5 -0.4 -3.5 -0.9z"/>
  <path d="M169.2 188.5 c0 -3.3 0.2 -3.5 3.4 -3.5 2.8 0 3.4 0.4 3.4 2.1 0 1.4 -0.5 1.9 -1.3 1.6 -0.8 -0.3 -2 -0.1 -2.8 0.4 -1.1 0.7 -0.9 0.9 0.8 0.9 1.2 0 2.5 0.5 2.8 1 0.4 0.6 -0.8 1 -2.8 1 -3.3 0 -3.5 -0.2 -3.5 -3.5z"/>
  <path d="M183.3 191.3 c-2.1 -0.8 -1.5 -3.3 0.7 -3.3 1.3 0 2 0.7 2 2 0 2 -0.5 2.3 -2.7 1.3z"/>
  <path d="M206.3 191.3 c1.3 -0.3 1.7 -1.1 1.4 -2.5 -0.3 -1.1 0 -2.1 0.9 -2.5 1.7 -0.6 1.8 -3.5 0.2 -5.1 -0.9 -0.9 -0.6 -1.4 1.3 -2 1.6 -0.7 2.5 -0.6 2.8 0.1 0.2 0.6 -0.1 1.3 -0.7 1.5 -0.7 0.2 -1.2 1.9 -1.2 3.8 0 1.9 -0.4 3.4 -1 3.4 -0.5 0 -1 0.9 -1 2 0 1.4 -0.6 2 -2.2 1.9 -1.9 -0.1 -2 -0.2 -0.5 -0.6z"/>
  <path d="M201.3 189.3 c-1.5 -0.6 -1.8 -7.3 -0.3 -7.3 0.6 0 1 -1.3 1 -3 0 -2.3 0.4 -3 2 -3 1.1 0 2 -0.4 2 -1 0 -0.5 1.2 -1 2.8 -1 2.5 0 2.8 -0.4 4.5 -7.3 0.9 -3.9 1.7 -7.5 1.7 -7.9 0 -0.5 -1.6 -0.8 -3.5 -0.8 -3.4 0 -3.5 -0.1 -3.5 -4 l0 -4 4 0 4 0 0 -5.5 c0 -4 0.4 -5.5 1.4 -5.5 1.5 0 2.6 3 2.6 7.5 0 4.5 -1.1 7.5 -2.6 7.5 -0.8 0 -1.4 0.5 -1.4 1 0 0.6 0.7 1 1.6 1 1.7 0 1.5 3.3 -0.8 12.8 -1.2 4.8 -5.6 9.2 -9.4 9.2 -2.4 0 -2.4 0.1 -0.9 3 1.9 3.7 1.9 4 -0.5 4 -2.1 0 -2.7 1.5 -1 2.5 2.4 1.5 -0.8 3 -3.7 1.8z"/>
  <path d="M155.8 188.3 c-1.6 -0.2 -2.8 -0.9 -2.8 -1.5 0 -0.7 1.6 -0.9 4.6 -0.4 2.6 0.3 5.3 0.6 6 0.6 0.8 0 1.4 0.5 1.4 1 0 1 -3.8 1.1 -9.2 0.3z"/>
  <path d="M186.8 187.6 c-1.1 -0.8 -1.8 -2.6 -1.8 -4.5 0 -2.9 0.2 -3.1 3.8 -3.1 4.7 0 6.2 1.4 6.2 5.7 0 3.1 -0.2 3.3 -3.2 3.3 -1.8 0 -4.1 -0.7 -5 -1.4z"/>
  <path d="M143.8 185.3 c-1 -0.2 -1.8 -1.1 -1.8 -2 0 -1 0.5 -1.3 1.8 -0.8 0.9 0.4 3.2 1.1 5 1.7 1.7 0.5 3.2 1.1 3.2 1.3 0 0.6 -5.9 0.4 -8.2 -0.2z"/>
  <path d="M157.3 184.8 c-6.2 -1.3 -5.3 -2.8 1.7 -2.8 5.3 0 6 0.2 6 2 0 2.2 -1.1 2.3 -7.7 0.8z"/>
  <path d="M145.3 181.5 c-2.9 -1.2 -4.5 -3.5 -2.6 -3.5 1.8 0 9.3 3.4 9.3 4.1 0 1.3 -3 1 -6.7 -0.6z"/>
  <path d="M191 174 c0 -3.9 0.1 -4 3.5 -4 3.4 0 3.5 0.1 3.5 4 0 3.9 -0.1 4 -3.5 4 -3.4 0 -3.5 -0.1 -3.5 -4z"/>
  <path d="M129 175 c0 -1.3 -0.7 -2 -2 -2 -1.1 0 -2 -0.7 -2 -1.5 0 -1 -1 -1.5 -3 -1.5 -1.6 0 -3 -0.4 -3 -1 0 -0.5 -0.9 -1 -2 -1 -1.1 0 -2 -0.7 -2 -1.6 0 -1.1 0.6 -1.4 2.3 -0.8 4.8 1.5 5.1 1.5 2.2 -0.2 -1.6 -1 -5.7 -2.7 -8.9 -3.9 -7.9 -2.7 -8.8 -5 -1.7 -4.2 4.1 0.5 5.1 0.3 5.1 -0.8 0 -1.1 1.2 -1.5 4 -1.5 l4 0 0 4 c0 3.3 0.3 4 2 4 1.1 0 2 0.7 2 1.5 0 0.9 0.9 1.5 2.5 1.5 1.5 0 2.8 0.7 3.2 1.8 0.4 0.9 1.6 2.4 2.6 3.2 1.1 0.9 1.8 2.4 1.6 3.4 -0.3 1.4 -1.4 0.9 -5.7 -2.8 -3 -2.5 -5.9 -4.6 -6.5 -4.6 -1.2 0.1 2.1 3 3.4 3 0.4 0 1.9 1.6 3.3 3.5 2.6 3.3 2.6 3.5 0.7 3.5 -1.4 0 -2.1 -0.7 -2.1 -2z"/>
  <path d="M152.8 175.6 c-7.8 -2.1 -9.8 -4 -9.8 -9 0 -6.5 1.3 -7.1 14.7 -7 10.4 0.1 11.4 0 11 -1.6 -0.4 -1.6 -0.1 -1.6 4.2 -0.5 2.5 0.7 6.2 2 8.1 2.9 l3.5 1.5 -5.3 0.1 c-5 0 -5.2 0.1 -4.2 2 0.6 1.2 1 4.2 0.8 6.7 -0.3 4.1 -0.7 4.8 -2.8 5.4 -4.1 1.1 -15.1 0.9 -20.2 -0.5z"/>
  <path d="M217.5 172.3 c0.8 -2.1 2.1 -6.7 2.9 -10.3 l1.5 -6.5 -0.5 5.9 c-0.6 8.2 -2.4 14.6 -3.9 14.6 -1.1 0 -1.1 -0.7 0 -3.7z"/>
  <path d="M201.7 169.3 c-0.4 -0.3 -0.7 -2.1 -0.7 -4 0 -3.2 0.1 -3.3 4 -3.3 l4 0 0 4 c0 3.9 -0.1 4 -3.3 4 -1.9 0 -3.7 -0.3 -4 -0.7z"/>
  <path d="M106.3 164.3 c-1.3 -0.2 -2.3 -1.1 -2.3 -1.9 0 -1.1 0.4 -1.2 1.9 -0.4 1.1 0.5 3.1 1 4.5 1 1.4 0 2.8 0.5 3.1 1 0.6 1 -2.8 1.1 -7.2 0.3z"/>
  <path d="M186.1 161.3 c0 -0.6 -2 -2.3 -4.3 -3.7 -4 -2.4 -4.1 -2.6 -1.7 -2.6 3.6 0 7.3 3.1 6.6 5.5 -0.2 1.1 -0.5 1.5 -0.6 0.8z"/>
  <path d="M134 155.1 c0 -4.4 0.3 -4.6 8.3 -5.6 6.5 -0.8 8.2 1 2 2 -6.9 1.1 -8.3 1.5 -8.3 2.5 0 0.6 0.9 1 2 1 1.3 0 2 0.7 2 2 0 1.6 -0.7 2 -3 2 -2.8 0 -3 -0.2 -3 -3.9z"/>
  <path d="M169 153.4 c-3.6 -0.7 -8.2 -1.6 -10.2 -1.9 -2.1 -0.3 -3.8 -1.1 -3.8 -1.6 0 -2.2 19.5 1.4 20.4 3.7 0.3 0.8 0.4 1.3 0.3 1.3 -0.1 -0.1 -3.1 -0.8 -6.7 -1.5z"/>
  <path d="M221 146.5 c0 -4.3 0.4 -7.5 1 -7.5 0.6 0 1 3.2 1 7.5 0 4.3 -0.4 7.5 -1 7.5 -0.6 0 -1 -3.2 -1 -7.5z"/>
  <path d="M106.7 151.3 c-0.4 -0.3 -0.7 -1.5 -0.7 -2.5 0 -1.1 -0.7 -1.8 -2 -1.8 -2.1 0 -2.4 -1 -1.4 -4.7 0.7 -2.7 3.4 -3.1 3.4 -0.5 0 1.4 0.7 1.7 4 1.4 l4 -0.4 0 4.6 c0 4.5 0 4.6 -3.3 4.6 -1.9 0 -3.7 -0.3 -4 -0.7z"/>
  <path d="M139.7 147.9 c-2.8 -1.6 -2 -2.9 1.8 -2.9 3.8 0 4.6 1.3 1.7 2.9 -1.1 0.6 -2.4 0.6 -3.5 0z"/>
  <path d="M178 146.6 c0 -2.7 1.2 -4.5 2.6 -3.9 2.3 0.8 1.8 5.3 -0.6 5.3 -1.1 0 -2 -0.6 -2 -1.4z"/>
  <path d="M99.1 143.8 c-0.1 -2.1 0.4 -3.8 0.9 -3.8 1.2 0 1.2 2.7 0 5.5 -0.7 1.6 -0.9 1.3 -0.9 -1.7z"/>
  <path d="M138 140.1 c0 -1.4 0.7 -1.9 2.5 -1.7 3.5 0.2 3.5 3.6 0 3.6 -1.8 0 -2.5 -0.5 -2.5 -1.9z"/>
  <path d="M176.2 136.8 c1.9 -2.9 5.7 -4.3 9.2 -3.4 2.6 0.6 3.7 3.8 1.6 5.1 -0.5 0.3 -1 -0.1 -1 -0.9 0 -2.1 -3.8 -3 -6.6 -1.5 -1.3 0.7 -2.4 1.6 -2.4 2.1 0 0.4 -0.5 0.8 -1.1 0.8 -0.7 0 -0.6 -0.8 0.3 -2.2z"/>
  <path d="M208 134.2 c0 -4.8 -3 -12.2 -4.9 -12.2 -1 0 -2.6 -1.7 -3.8 -4.2 -5.8 -11.8 -14.9 -19.3 -27.4 -22.3 -12.5 -3.1 -24.3 -0.3 -34.6 8.1 -5 4.1 -10.3 11.4 -10.3 14.2 0 1.1 -0.7 2.5 -1.5 3.2 -0.8 0.7 -1.5 2.1 -1.5 3 0 3.9 -1.1 5 -5.1 5 -3.8 0 -3.9 0.1 -3.9 3.6 l0 3.7 -5 -0.5 c-2.8 -0.3 -5.3 -0.8 -5.7 -1.1 -1.4 -1.5 6.4 -22.8 9.7 -26.1 0.5 -0.5 0.1 -2.1 -1.2 -3.8 l-2.1 -3 2 -2.6 c1.3 -1.8 2.8 -2.6 4.2 -2.4 1.7 0.3 2.1 -0.2 2.1 -2.2 0 -1.9 1.4 -3.6 5.2 -6.6 11.3 -9 21.7 -12.3 38.3 -12.3 17 0 26.8 3.1 38.3 12.3 8.3 6.5 20.2 22.9 20.2 27.9 0 1.5 -1.8 3.1 -3.5 3.1 -0.2 0 -0.6 -1.8 -1 -4 -0.5 -3 -1.1 -4 -2.6 -4 -1.8 0 -1.8 0.1 0.1 4.6 1.1 2.5 2.4 7.1 3 10.2 0.5 3.1 1.3 6.9 1.6 8.5 0.6 2.7 0.6 2.7 -5 2.7 -5.5 0 -5.6 -0.1 -5.6 -2.8z m-58.5 -47.3 c1.4 -4.2 -4.5 -6.6 -6.1 -2.4 -1 2.5 0.4 4.5 3 4.5 1.6 0 2.7 -0.7 3.1 -2.1z"/>
  <path d="M220.9 134 c-0.7 -3.5 -0.4 -4.8 0.7 -3.8 0.3 0.4 0.4 2.1 0.2 4 l-0.3 3.3 -0.6 -3.5z"/>
  <path d="M101.1 131.8 c-0.1 -2.1 0.4 -3.8 0.9 -3.8 1.1 0 1.1 1.4 0 5 -0.7 2.2 -0.8 2.1 -0.9 -1.2z"/>
  <path d="M188 132.9 c-1.8 -1.6 -3.3 -2 -6 -1.5 -3.2 0.5 -3.4 0.4 -1.6 -0.9 1.1 -0.8 2.9 -1.5 4.1 -1.5 2.2 0 6.5 3.3 6.5 5 0 1.3 -0.1 1.3 -3 -1.1z"/>
  <path d="M136 131.9 c0 -1.9 2.8 -3.9 5.4 -3.9 2.8 0 1.6 2.5 -1.9 4.1 -3.3 1.6 -3.5 1.6 -3.5 -0.2z"/>
  <path d="M218.8 124.5 c-0.5 -2.4 -0.2 -3.4 1.7 -5 1.3 -1.1 2.6 -2.9 2.8 -4 0.3 -1.1 0.5 -0.3 0.6 1.8 0.1 3 -0.2 3.7 -1.8 3.7 -1.5 0 -2.1 0.8 -2.3 3.3 l-0.3 3.2 -0.7 -3z"/>
  <path d="M104.1 121.3 c-0.1 -2.3 0.4 -3.3 1.4 -3.3 1.2 0 1.3 0.5 0.7 1.8 -0.5 0.9 -1.2 2.4 -1.5 3.2 -0.3 0.8 -0.6 0 -0.6 -1.7z"/>
  <path d="M107 113.7 c0 -1.8 0.5 -2.7 1.5 -2.7 1.3 0 1.4 0.4 0.4 2.3 -1.7 3.3 -1.9 3.3 -1.9 0.4z"/>
  <path d="M221.2 110.5 c-1 -2.1 -0.9 -2.5 0.3 -2.5 0.9 0 1.5 1 1.5 2.5 0 1.4 -0.2 2.5 -0.3 2.5 -0.2 0 -0.9 -1.1 -1.5 -2.5z"/>
  <path d="M110 107.5 c0 -1.5 0.4 -2.4 1 -2 0.6 0.3 1 1.2 1 2 0 0.8 -0.4 1.7 -1 2 -0.6 0.4 -1 -0.5 -1 -2z"/>
  <path d="M217.2 103.5 c-1 -2.1 -0.9 -2.5 0.3 -2.5 0.9 0 1.5 1 1.5 2.5 0 1.4 -0.2 2.5 -0.3 2.5 -0.2 0 -0.9 -1.1 -1.5 -2.5z"/>
  <path d="M109 98.7 c0 -1.7 0.5 -2.7 1.5 -2.7 1.9 0 1.9 0.9 0 3.4 -1.4 1.9 -1.5 1.9 -1.5 -0.7z"/>
  <path d="M124 83.5 c0 -0.8 0.5 -1.5 1.1 -1.5 0.6 0 1.7 -0.7 2.5 -1.5 0.9 -0.8 2.7 -1.5 4.1 -1.5 3.1 0 3.2 -0.1 -2.9 3.4 -3.8 2.1 -4.8 2.4 -4.8 1.1z"/>
  <path d="M198.4 83.5 c-1.9 -1.4 -1.8 -1.4 0.4 -1.5 1.3 0 2.2 0.6 2.2 1.5 0 1.9 -0.1 1.9 -2.6 0z"/>
  <path d="M138 76.5 c0 -1 1 -1.5 3.3 -1.4 1.7 0 2.5 0.3 1.7 0.6 -0.8 0.3 -2.3 1 -3.2 1.5 -1.3 0.6 -1.8 0.5 -1.8 -0.7z"/>
  <path d="M179 75 c-2.2 -0.7 -2.1 -0.8 1.3 -0.9 2 -0.1 3.7 0.4 3.7 0.9 0 1.1 -1.4 1.1 -5 0z"/>
  <path d="M145 74.1 c0 -0.9 12.8 -2.6 13.6 -1.8 0.3 0.3 -2.4 1 -5.9 1.6 -7.7 1.3 -7.7 1.3 -7.7 0.2z"/>
  <path d="M168.5 73 c-3 -0.8 -3 -0.8 0.8 -0.9 2 0 3.7 0.4 3.7 0.9 0 1.1 -0.2 1.1 -4.5 0z"/>
 </g>
 <g fill="#eb6ca2">
  <path d="M190 193.5 c0 -1.3 0.4 -1.4 2.1 -0.5 1.1 0.7 2.7 0.9 3.5 0.6 0.8 -0.3 1.4 -0.1 1.4 0.4 0 0.6 -1.6 1 -3.5 1 -2.5 0 -3.5 -0.4 -3.5 -1.5z"/>
  <path d="M203 192 c3.6 -1.1 5 -1.1 5 0 0 0.6 -1.7 1 -3.7 0.9 -3.4 -0.1 -3.5 -0.2 -1.3 -0.9z"/>
  <path d="M183.3 191.2 c-0.6 -0.4 -1.4 -3.3 -1.8 -6.4 l-0.7 -5.7 3.3 -1.6 c3.2 -1.6 4.1 -2.8 9 -12 1.1 -2.2 3.9 -5.1 6 -6.5 5.8 -3.6 7.4 -6.4 6.1 -10.9 -0.6 -2 -1.3 -7.2 -1.5 -11.7 -0.4 -6.1 -1.3 -9.9 -3.8 -16 -1.8 -4.3 -3.6 -8 -4.1 -8.2 -0.4 -0.2 -0.8 -0.7 -0.8 -1.2 0 -1 -8 -9 -9 -9 -0.5 0 -1 -0.3 -1.2 -0.7 -0.5 -1.3 -7.2 -4.1 -13.2 -5.4 -3.1 -0.8 -5.6 -1.9 -5.6 -2.6 0 -0.6 -1 -1.4 -2.2 -1.6 -1.3 -0.2 -0.6 -0.5 1.7 -0.6 6.1 -0.2 16.9 3.2 22.9 7.2 5.9 3.9 8.9 7.4 13.7 15.8 1.7 3 2.8 4.6 2.5 3.7 -0.3 -1.2 -0.1 -1.5 0.9 -1.2 1.8 0.7 5.5 10.5 5.5 14.4 0 1.7 0.4 3 0.9 3 0.5 0 0.7 -1.9 0.5 -4.2 -0.3 -3.4 -0.2 -3.9 0.6 -2.3 2.3 4.5 -0.3 -5.2 -2.9 -11 -2.8 -6.2 -10.3 -16.2 -15 -20.2 -3.1 -2.7 -1.7 -3 2 -0.5 1.5 0.9 3.9 2.6 5.5 3.6 1.6 1.1 4.7 3.6 6.8 5.5 l3.9 3.6 -3 -4.5 c-8 -11.8 -21.7 -21.5 -34 -24 -3.4 -0.7 -5.3 -1.6 -5.3 -2.6 0 -2 3.6 -1.8 11.1 0.7 15.3 5 24.7 12.8 34.6 28.7 2.3 3.7 4.2 7.3 4.2 8.1 0.1 0.7 -1.1 2.4 -2.6 3.6 -2.5 2.2 -2.6 2.5 -1.4 6.7 4.2 15.5 2.1 44.9 -3.7 50.1 -1 0.9 -3.3 2 -5 2.3 -3.6 0.7 -3.7 1.1 -1.7 3.8 1.7 2.3 1.1 3.6 -1.8 3.6 -1.6 0 -1.8 0.3 -0.9 1.2 1.8 1.8 1.4 3.8 -0.8 3.8 -1.6 0 -2 -0.7 -2 -3 0 -1.6 0.5 -3 1 -3 0.6 0 1 -1.3 1 -3 0 -3.1 -0.7 -3.4 -4.6 -2.4 -1.8 0.5 -2 1.1 -1.6 5.8 0.3 3.9 0 5.5 -1.2 6.5 -1.4 1.2 -2.2 1 -5.6 -1.3 -3.7 -2.5 -4 -2.5 -4 -0.7 0 2.3 -1.1 3.3 -2.7 2.3z m7.7 -6.7 c-0.7 -0.8 -1.7 -1.5 -2.2 -1.5 -0.6 0 -0.5 0.7 0.2 1.5 0.7 0.8 1.7 1.5 2.2 1.5 0.6 0 0.5 -0.7 -0.2 -1.5z"/>
  <path d="M161.3 189.3 c-1.3 -0.2 -2.3 -0.9 -2.3 -1.4 0 -1.4 6.2 -1 9 0.6 l2.5 1.4 -3.5 -0.1 c-1.9 0 -4.5 -0.3 -5.7 -0.5z"/>
  <path d="M163.8 186.2 c-8 -2.6 -5.6 -5.3 3.1 -3.6 2.4 0.5 3.1 1.2 3.1 3 0 2.7 0.2 2.7 -6.2 0.6z"/>
  <path d="M138.3 182.8 c-1.3 -0.6 -2.3 -1.7 -2.3 -2.5 0 -1.8 0.7 -1.6 6 1.2 4.4 2.3 4.4 2.4 1.5 2.4 -1.6 0 -4 -0.5 -5.2 -1.1z"/>
  <path d="M142.5 180.1 c-4.5 -2 -7.7 -5.1 -5.4 -5.1 2.3 0 9.9 4.4 9.9 5.7 0 1.6 0.3 1.6 -4.5 -0.6z"/>
  <path d="M208.4 180.9 c-0.3 -0.5 0.7 -1.4 2.2 -1.9 1.5 -0.6 3.1 -1.3 3.5 -1.6 0.5 -0.3 0.9 0.1 0.9 0.8 0 1.7 -5.8 4 -6.6 2.7z"/>
  <path d="M153.7 175.9 c-7.3 -1.7 -15.7 -7.6 -15.7 -11 0 -3.6 4.4 -5.2 16.1 -5.7 8.3 -0.4 10.9 -0.8 10.9 -1.8 0 -1.5 1.2 -1.7 4.8 -0.8 2.3 0.7 3.1 3.4 1 3.4 -0.7 0.1 0.1 0.7 1.7 1.4 4.5 2 8.5 6.2 8.5 8.9 0 1.8 -0.9 2.8 -3.7 4 -5.1 2.2 -11.3 3.2 -11.3 1.9 0 -0.6 1.6 -1.4 3.5 -1.8 2.9 -0.5 3.5 -1.1 3.5 -3.1 0 -6.1 -4.6 -8.5 -16.6 -8.6 -8.2 0 -10.4 1.1 -10.4 5.3 0 2.5 0.6 3 4.8 4.3 2.6 0.9 6.4 1.8 8.5 2.2 2 0.3 3.7 1 3.7 1.5 0 1.2 -4.1 1.1 -9.3 -0.1z"/>
  <path d="M127.2 174.8 c-1.4 -1.4 -1.6 -4.8 -0.3 -4.8 0.5 0 1.9 1.4 3.1 3 2 2.8 2 3 0.3 3 -1.1 0 -2.4 -0.5 -3.1 -1.2z"/>
  <path d="M130 171.1 l-4.5 -4.1 3 0 c3.3 0.1 6.9 3.8 6.3 6.6 -0.2 1.2 -1.4 0.6 -4.8 -2.5z"/>
  <path d="M113 165.6 c0 -1.2 0.6 -1.3 3.1 -0.4 1.6 0.6 3.2 0.8 3.5 0.5 0.6 -0.6 -6.7 -4 -10.6 -5 -5.8 -1.4 -6.5 -2.8 -6.4 -12.4 0.2 -11.9 2.7 -22.5 8 -33 l4.4 -8.7 -2.2 -2.3 c-1.8 -1.9 -1.9 -2.5 -0.8 -4 3.2 -4.2 11.5 -12.3 12.7 -12.3 0.7 0 1.3 -0.3 1.3 -0.8 0 -1.5 10.7 -7.1 17.8 -9.2 9.4 -2.9 25.5 -3.4 26 -0.9 0.2 1.4 -1.3 1.7 -10 2.2 -14.7 0.8 -27.7 5.8 -35 13.4 l-3.3 3.5 4.2 -2.6 c7.4 -4.5 7.9 -3.1 1.5 4.2 -7.2 8.1 -12.1 15.7 -15.6 24 -3.2 7.5 -3.4 10.4 -0.4 4.2 2.1 -4.2 2.3 -4.3 2.8 -2 0.6 2.3 0.8 2 2.5 -2.3 2.5 -6.6 3.5 -6.7 2.9 -0.5 -0.4 3.9 -0.3 4.9 0.5 3.8 0.6 -0.8 1.1 -2.5 1.1 -3.6 0 -1.2 0.7 -2.7 1.5 -3.4 0.9 -0.7 1.4 -1.9 1.1 -2.5 -0.7 -1.9 5.7 -10.8 10.7 -14.9 5.2 -4.3 13.7 -8.3 19.5 -9.2 3.8 -0.6 4.2 -0.5 4.2 1.4 0 1.5 -0.9 2.1 -3.7 2.7 -5.4 1 -15.1 6.4 -19 10.5 -6.1 6.4 -11.3 20.1 -11.3 29.5 0 3 -0.3 3.5 -2.4 3.5 -1.6 0 -2.7 0.7 -3.1 2 -0.7 2.2 1.4 9.2 2.6 8.4 1.1 -0.7 5.9 10.1 5.9 13.4 0 2.8 -0.3 3 -5.2 3.6 -7.7 0.9 -8.8 0.8 -8.8 -0.8z"/>
  <path d="M99.1 154.3 c0.1 -3.4 0.2 -3.5 0.9 -1.3 1.1 3.6 1.1 5 0 5 -0.5 0 -1 -1.7 -0.9 -3.7z"/>
  <path d="M139 151.3 c0 -1.1 6 -2.7 6.8 -1.8 0.8 0.8 -0.2 1.4 -3.6 2.1 -1.9 0.4 -3.2 0.2 -3.2 -0.3z"/>
  <path d="M158.8 151.3 c-1 -0.2 -1.8 -0.9 -1.8 -1.5 0 -0.6 1 -0.8 2.3 -0.4 1.2 0.3 2.8 0.6 3.5 0.6 0.6 0 1.2 0.5 1.2 1 0 1 -2.1 1.1 -5.2 0.3z"/>
  <path d="M221 146 c0 -2.2 0.5 -4 1 -4 0.6 0 1 1.8 1 4 0 2.2 -0.4 4 -1 4 -0.5 0 -1 -1.8 -1 -4z"/>
  <path d="M99 145.2 c0 -2.3 0.5 -4.2 1 -4.2 0.7 0 0.8 1.4 0.4 3.8 -0.9 5.1 -1.4 5.3 -1.4 0.4z"/>
  <path d="M178.4 145.4 c0.3 -0.9 0.6 -1.9 0.6 -2.2 0 -0.4 1.4 -0.7 3 -0.7 2.4 0 3 0.4 3 2.3 0 1.9 -0.5 2.2 -3.6 2.2 -2.9 0 -3.5 -0.3 -3 -1.6z"/>
  <path d="M185.9 138.7 c-0.5 -3.4 -0.3 -3.8 1.5 -3.5 1.5 0.2 2.2 1.1 2.4 3.3 0.2 2.7 0.1 2.8 -1 1 -1.2 -1.9 -1.2 -1.9 -1.8 0.5 -0.6 2.2 -0.7 2.1 -1.1 -1.3z"/>
  <path d="M100.1 136.8 c-0.1 -2.1 0.4 -3.8 0.9 -3.8 1.1 0 1.1 1.4 0 5 -0.7 2.2 -0.8 2.1 -0.9 -1.2z"/>
  <path d="M102.4 126.7 c0.4 -4.8 1.1 -6.6 2.2 -5.5 0.3 0.3 -0.2 2.8 -1.1 5.4 l-1.5 4.9 0.4 -4.8z"/>
  <path d="M219.7 128.1 c-0.4 -1.9 -0.5 -3.6 -0.2 -3.9 1 -1.1 1.6 0.7 1.3 4 l-0.3 3.3 -0.8 -3.4z"/>
  <path d="M222.4 113.5 c-0.9 -2.8 -0.8 -3.5 0.2 -3.5 0.9 0 1.4 1.2 1.4 3.5 0 1.9 -0.1 3.5 -0.3 3.5 -0.1 0 -0.7 -1.6 -1.3 -3.5z"/>
  <path d="M218.2 105.5 c-1 -2.1 -0.9 -2.5 0.3 -2.5 0.9 0 1.5 1 1.5 2.5 0 1.4 -0.2 2.5 -0.3 2.5 -0.2 0 -0.9 -1.1 -1.5 -2.5z"/>
  <path d="M108 102 c0 -2.9 0.4 -4 1.5 -4 1.3 0 1.4 0.4 0.5 2 -0.8 1.4 -0.8 2.6 0 4 0.9 1.6 0.8 2 -0.5 2 -1.1 0 -1.5 -1.1 -1.5 -4z"/>
  <path d="M211 95 c-0.9 -1.6 -0.8 -2 0.5 -2 0.8 0 1.5 0.9 1.5 2 0 1.1 -0.2 2 -0.5 2 -0.2 0 -0.9 -0.9 -1.5 -2z"/>
  <path d="M183 93.1 c-3.4 -1.8 -9 -3.2 -17.5 -4.6 -3.7 -0.6 -3.8 -0.8 -2 -2.1 1 -0.8 3.7 -1.4 5.9 -1.4 4.1 -0.1 4.1 -0.1 1.6 -1.5 -2.4 -1.4 -2.4 -1.4 2.1 -1.5 5.2 0 10.7 1.6 12.9 3.7 1.3 1.3 1.1 1.3 -1.5 0.7 l-3 -0.6 3.5 3.1 3.5 3.2 -3.2 -1.6 c-5 -2.4 -6 -1.8 -1.7 1.1 6 4.1 5.7 4.8 -0.6 1.5z"/>
  <path d="M202.4 86.5 c-1.9 -1.4 -1.8 -1.4 0.4 -1.5 1.3 0 2.2 0.6 2.2 1.5 0 1.9 -0.1 1.9 -2.6 0z"/>
  <path d="M195 81.4 l-2.5 -1.4 2.8 0 c1.7 0 2.7 0.5 2.7 1.5 0 0.8 -0.1 1.5 -0.2 1.4 -0.2 -0.1 -1.4 -0.7 -2.8 -1.5z"/>
  <path d="M131 79.4 c0 -1.4 3.8 -2.8 6.4 -2.2 0.9 0.2 -0.1 1 -2.4 2 -3.3 1.4 -4 1.4 -4 0.2z"/>
  <path d="M142 75.1 c0 -1 3.5 -1.8 12 -2.5 l6.5 -0.5 -7 1.4 c-3.8 0.8 -8 1.7 -9.2 2 -1.3 0.3 -2.3 0.1 -2.3 -0.4z"/>
  <path d="M175 74 c-2.2 -0.7 -2.1 -0.8 1.3 -0.9 2 -0.1 3.7 0.4 3.7 0.9 0 1.1 -1.4 1.1 -5 0z"/>
 </g>
 <g fill="#f39862">
  <path d="M156.6 184.4 c-11.7 -2.3 -20.3 -7.3 -31.9 -18.1 -1 -1 -1.5 -2.3 -1.2 -3.1 0.3 -0.7 -0.2 -2.6 -1 -4.2 -0.8 -1.6 -1.5 -4 -1.5 -5.5 0 -1.5 -0.6 -2.5 -1.5 -2.5 -2 0 -3.5 -3.2 -3.5 -7.4 0 -5 0.9 -6.6 3.6 -6.6 1.8 0 2.7 -0.9 3.8 -3.5 0.8 -1.9 2 -3.5 2.5 -3.5 0.6 0 1.1 -0.7 1.1 -1.5 0 -0.9 0.8 -1.9 1.7 -2.2 0.9 -0.4 2.4 -1.4 3.4 -2.4 2.4 -2.4 10.2 -4.6 18.9 -5.5 l7 -0.7 0 2.7 c0 1.6 0.6 2.6 1.4 2.6 3 0 15.6 -3 20.7 -5 7.8 -2.9 10.5 -2.7 12.9 1.2 2.5 4.2 5.7 13.9 6.6 20.1 0.6 4.5 0.8 4.7 3.9 4.7 3.8 0 4.5 1.2 4.5 7.5 0 4.8 -3.8 10.5 -7 10.5 -1.1 0 -2.4 1.5 -3.5 3.8 -1 2 -2.8 5.1 -4.1 6.8 -1.3 1.7 -2.1 3.4 -1.8 3.7 0.7 0.7 -4.5 4.7 -6.1 4.7 -0.7 0 -1.5 0.6 -1.8 1.4 -1.3 3.4 -14.9 4.4 -27.1 2z m23.2 -5 c8.3 -4.1 14.6 -12.7 15.7 -21.6 0.3 -2.3 0.8 -5.4 1 -6.8 0.5 -3.8 -0.9 -5.8 -2.9 -4.1 -1.4 1.2 -1.6 1 -1.6 -1.3 0 -1.4 -0.9 -3.5 -2 -4.6 -1.1 -1.1 -2 -2.9 -2 -4 0 -1.5 -0.7 -2 -2.5 -2 -1.4 0 -2.5 -0.4 -2.5 -1 0 -3.7 8.5 2.6 9.5 7 1 4.7 2.8 3.7 2.3 -1.3 -0.4 -3.3 -5.1 -17 -6.4 -18.6 -0.1 -0.1 -3 0.6 -6.3 1.8 -3.4 1.2 -7.4 2.1 -8.9 2.1 -1.5 0 -3.2 0.4 -3.7 0.9 -1.4 1.3 -14.7 1.6 -17 0.4 -1.2 -0.7 -1.4 -1.3 -0.6 -1.7 1.7 -1.1 1.3 -2.5 -0.6 -2.1 -7.7 1.5 -7.9 1.7 -5.5 2.6 4 1.5 2.3 2.4 -4.4 2.3 -5.6 -0.1 -7 0.3 -9.5 2.3 -1.6 1.4 -2.9 3.1 -2.9 3.8 0 2.7 2.5 2 6.1 -1.7 3.8 -4 7.1 -4.8 11.2 -2.6 3.1 1.6 4.6 3.9 4.6 6.8 0 2.3 -0.1 2.2 -1.6 -1 l-1.6 -3.5 -0.9 3.8 c-0.6 2.3 -1.6 3.7 -2.6 3.7 -1.3 0 -1.4 -0.2 0 -1.7 0.8 -1 1.8 -3 2.2 -4.4 0.5 -2.1 0.2 -2.8 -1.4 -3.2 -1.1 -0.3 -2 -0.1 -2 0.4 0 0.5 -0.8 0.9 -1.8 0.9 -2.8 0 -6.4 4.5 -7.1 8.6 l-0.6 3.7 -2.9 -4.4 -2.9 -4.4 -1.3 3.5 c-0.7 1.9 -1.3 6.9 -1.3 11.1 -0.1 6.9 0.2 8 3.5 13.5 5.8 9.6 9.7 13.1 19.3 17 4.6 1.9 7.5 2.4 16.2 2.4 9.3 0 11.1 -0.3 15.7 -2.6z m25.7 -26.5 c0.4 -0.5 0.4 -2.2 0 -3.7 -0.5 -2 -0.8 -2.3 -1.6 -1.1 -1.2 1.9 -1.2 5.9 0 5.9 0.6 0 1.3 -0.5 1.6 -1.1z m-84.9 -8.4 c0 -5.6 -0.9 -7.1 -2.1 -3.5 -0.5 1.4 1.2 9 2 9 0 0 0.1 -2.5 0.1 -5.5z"/>
  <path d="M153.7 175.9 c-4.6 -1.1 -7.7 -2.6 -7.7 -3.9 0 -0.5 1.5 -0.3 3.3 0.4 1.7 0.8 5.1 1.7 7.5 2.1 2.3 0.4 4.2 1.1 4.2 1.6 0 1.1 -2.1 1 -7.3 -0.2z"/>
  <path d="M137.1 165.4 c-2.7 -3.5 -2.6 -4.4 0.4 -4.4 2.2 0 2.5 0.4 2.5 3.5 0 1.9 -0.2 3.5 -0.4 3.5 -0.3 0 -1.4 -1.2 -2.5 -2.6z"/>
  <path d="M180 162.5 c0 -1.9 0.4 -2.3 1.8 -1.8 0.9 0.3 2.3 1 3 1.6 1.6 1.3 1.7 -1.4 0 -3.1 -0.9 -0.9 -0.8 -1.2 0.5 -1.2 1.3 0 1.7 0.9 1.7 3.5 0 3.3 -0.2 3.5 -3.5 3.5 -3.1 0 -3.5 -0.3 -3.5 -2.5z"/>
  <path d="M134 154.2 c0 -2.5 1.9 -4.2 4.7 -4.2 3.1 0 2.9 1.6 -0.2 2.4 -1.4 0.4 -2.5 1.3 -2.5 2.1 0 0.8 -0.4 1.5 -1 1.5 -0.5 0 -1 -0.8 -1 -1.8z"/>
  <path d="M175.3 154.7 c-4.3 -1.3 -4.3 -3.2 -0.1 -2.3 3.6 0.7 4.2 1.1 3.7 2.3 -0.2 0.5 -1.8 0.5 -3.6 0z"/>
  <path d="M165.8 152.3 c-2 -0.5 -2.4 -2.3 -0.5 -2.3 2.4 0 5.7 1.2 5.7 2.1 0 0.9 -2.2 1 -5.2 0.2z"/>
  <path d="M158.8 151.3 c-2.8 -0.4 -4 -2.3 -1.5 -2.3 2.4 0 5.7 1.2 5.7 2.1 0 0.5 -0.3 0.8 -0.7 0.8 -0.5 -0.1 -2 -0.4 -3.5 -0.6z"/>
  <path d="M183 145.5 c0 -1.4 0.8 -2.9 2 -3.5 2.2 -1.2 2.5 -0.4 1.4 3.8 -0.8 3 -3.4 2.8 -3.4 -0.3z"/>
  <path d="M188.1 132.9 c-1.3 -1 -2.9 -1.9 -3.7 -1.9 -0.8 0 -1.4 -0.4 -1.4 -1 0 -1.8 2.8 -1.1 5.7 1.4 3.3 2.9 2.8 4.3 -0.6 1.5z"/>
  <path d="M146.1 112.6 c-0.7 -0.8 -1.1 -3.6 -0.9 -6.3 l0.3 -4.8 6 0 6 0 0.3 4.8 c0.4 6.1 -0.9 7.7 -6.3 7.7 -2.5 0 -4.8 -0.6 -5.4 -1.4z"/>
 </g>
 <g fill="#44acf3">
  <path d="M177.6 196.4 c-2.7 -0.7 -5.4 -1.8 -6 -2.4 -0.5 -0.5 -1.8 -1 -2.8 -1 -1 0 -1.8 -0.4 -1.8 -0.9 0 -0.5 -2.4 -1.2 -5.2 -1.6 -9.2 -1.1 -15.8 -2.6 -15.8 -3.6 0 -0.5 -1.1 -0.9 -2.5 -0.9 -1.3 0 -4.5 -1 -7 -2.2 -3.7 -1.8 -4.5 -2.7 -4.5 -4.9 l0 -2.7 6.5 3.5 c7.7 4.1 10.5 5 20.5 6.7 4.1 0.8 8.4 1.7 9.5 2.1 1.9 0.7 1.9 0.7 -0.1 -0.8 -1.1 -0.9 -5.8 -2.3 -10.5 -3.1 -8.5 -1.6 -25 -8.7 -21.8 -9.4 0.9 -0.1 3.8 1 6.5 2.6 4.6 2.7 18.1 6.2 23.9 6.2 1.4 0 2.5 0.4 2.5 0.9 0 0.5 2 1.2 4.5 1.5 4.5 0.7 6.1 1.8 5 3.6 -0.4 0.6 -1.6 0.3 -3.1 -0.7 -1.9 -1.2 -2.8 -1.3 -3.7 -0.4 -0.8 0.8 -0.6 1.1 0.9 1.1 1 0 2.7 0.7 3.7 1.4 1 0.8 2.6 1.2 3.6 0.9 1 -0.3 2.2 0 2.5 0.6 1 1.6 4.6 1.3 5.2 -0.4 0.5 -1.3 1 -1.2 3.7 0.1 2.4 1.3 3.5 1.4 4.9 0.5 2.8 -1.7 4.8 -1.3 4.8 0.9 0 2.5 -0.6 2.7 -10.5 3.3 -5.1 0.3 -9.8 0 -12.9 -0.9z"/>
  <path d="M227.4 195.3 c-5.4 -0.3 -6.3 -0.7 -6.8 -2.6 -0.8 -3.2 -0.7 -7.2 0.3 -8.2 0.4 -0.6 1.8 -3.9 3 -7.5 2.7 -7.8 3.7 -21.5 2.5 -32.6 l-0.8 -7.9 -0.7 13.1 c-0.6 12.9 -3.3 27.4 -5 27.4 -0.5 0 -0.9 0.7 -0.9 1.5 0 0.9 -1.1 2.1 -2.5 2.7 -1.9 0.8 -2.5 1.9 -2.5 4.2 0 2 -0.7 3.6 -2 4.4 -1.1 0.7 -2 2.1 -2 3.2 0 1.7 -0.7 2 -4 2 -4.9 0 -5.5 -2.5 -0.9 -3.5 2.4 -0.6 3 -1.1 2.6 -2.7 -0.3 -1.1 0 -2.1 0.9 -2.5 1.7 -0.6 1.8 -3.5 0.3 -5 -0.9 -0.9 -0.3 -1.5 2.4 -2.6 1.9 -0.9 4.2 -2.6 5.1 -3.9 4.3 -6.6 6.2 -34.7 3.1 -47.3 -1.4 -6 -1.4 -6 1 -7.8 3.4 -2.5 3.1 -4.7 -1.1 -12.3 -10.9 -19.4 -26.1 -30.3 -47.6 -33.9 -2.6 -0.4 -3.8 -1.1 -3.8 -2.2 0 -1.3 0.9 -1.5 6.4 -0.9 6.9 0.7 15.7 3.3 16.8 5 0.4 0.6 0.8 -10.1 0.8 -23.7 l0 -24.8 -2.6 -2.4 c-1.5 -1.4 -3.5 -2.5 -4.5 -2.5 -2.5 0 -2.4 -1.7 0 -3 3.1 -1.6 9.1 -1.2 13.5 0.9 20.2 9.6 39.2 18.8 44.6 21.6 11.5 6 10.5 -2 10.8 79.9 l0.2 71.3 -6.4 1.7 c-3.6 0.9 -8.2 1.5 -10.3 1.4 -2.1 -0.1 -6.6 -0.3 -9.9 -0.5z m-2.8 -72.1 c-1.3 -1.2 -1.5 0.7 -0.8 5.9 l0.7 5.4 0.3 -5.4 c0.2 -2.9 0.1 -5.6 -0.2 -5.9z"/>
  <path d="M182.4 190.5 c-1.9 -1.4 -1.8 -1.4 0.4 -1.5 1.3 0 2.2 0.6 2.2 1.5 0 1.9 -0.1 1.9 -2.6 0z"/>
  <path d="M192.3 190.9 c-3.7 -1.4 -2.7 -1.9 3.5 -1.8 3.1 0.1 4.6 0.4 3.2 0.6 -1.4 0.3 -2.9 0.8 -3.5 1.3 -0.5 0.4 -2 0.4 -3.2 -0.1z"/>
  <path d="M204.8 182.5 c0.4 -2.4 0.5 -2.4 1.7 -0.8 1.5 2 1.1 3.3 -0.9 3.3 -0.9 0 -1.2 -0.9 -0.8 -2.5z"/>
  <path d="M205 177.7 c0 -0.3 2 -1.5 4.4 -2.6 4.6 -2.3 4.9 -2.9 7.6 -15.1 1.4 -6.7 1.2 -22.6 -0.5 -29.5 -2.1 -8.6 -1.9 -12 0.6 -13.7 l2.1 -1.4 -2.8 -5.4 c-1.6 -3 -3.2 -5.6 -3.6 -5.8 -0.5 -0.2 -0.8 -0.9 -0.8 -1.5 0 -0.7 -0.9 -1.8 -2 -2.5 -1.1 -0.7 -2 -2.1 -2 -3.1 0 -1 -0.9 -2.1 -2.1 -2.4 -1.1 -0.3 -2.3 -1.5 -2.6 -2.6 -0.3 -1.2 -1.3 -2.1 -2.2 -2.1 -0.9 0 -3.1 -1.3 -4.9 -3 -1.8 -1.6 -3.9 -3 -4.7 -3 -0.7 0 -2 -0.6 -2.7 -1.3 -1.5 -1.5 -15.2 -5.7 -18.5 -5.7 -1.3 0 -2.3 -0.4 -2.3 -0.9 0 -0.4 2.3 -0.4 5.1 0 19.4 3.1 35.1 14.7 44.9 33.4 l3.5 6.6 -2.8 2.3 -2.8 2.3 1.7 8.3 c1.3 6.4 1.5 11.4 1.1 21.4 -0.6 14.6 -2.5 22.8 -6 25 -2.4 1.6 -7.7 3.1 -7.7 2.3z"/>
  <path d="M114.8 169.2 c-2.6 -0.9 -5 -2 -5.4 -2.4 -0.4 -0.5 -1.7 -0.8 -3 -0.8 -3.3 0 -5.4 -1 -5.4 -2.6 0 -0.8 -0.6 -1.4 -1.4 -1.4 -1.5 0 -2.6 -3 -2.6 -7.2 0 -4.2 2.5 -3.4 3.9 1.2 1.3 4.3 4.9 7 9.5 7 1.4 0 2.7 0.4 3 0.9 0.3 0.5 1.8 1.2 3.3 1.6 4.1 1 9.3 3.6 9.3 4.6 0 1.4 -6.1 0.9 -11.2 -0.9z"/>
  <path d="M119.5 164.9 c-3.3 -1.6 -7.9 -3.4 -10.2 -4 -2.3 -0.6 -4.6 -1.6 -5.1 -2.3 -1.4 -1.7 -2.3 -6.6 -1.3 -6.6 0.5 0 1.2 1.3 1.6 2.8 0.6 2.9 4.7 5.2 9.3 5.2 1.1 0 2.3 0.4 2.6 0.9 0.3 0.4 2.6 1.4 5.1 2.1 3.3 0.9 4.5 1.8 4.5 3.1 0 1.1 -0.1 1.9 -0.2 1.9 -0.2 -0.1 -3 -1.4 -6.3 -3.1z"/>
  <path d="M97 143.8 c0 -5.1 1.8 -15 4.1 -22.2 1.7 -5.7 2.3 -6.6 4.4 -6.6 l2.4 0 -2.3 6.3 c-2.2 5.6 -3.4 10.8 -5.1 22 -0.8 4.8 -3.5 5.2 -3.5 0.5z"/>
  <path d="M103.2 140 c0.9 -7.6 5.9 -24.5 6.5 -21.9 0.2 0.9 -0.8 5 -2.2 9.2 -1.4 4.2 -2.8 10.3 -3.2 13.7 -0.3 3.3 -0.9 6 -1.3 6 -0.3 0 -0.3 -3.2 0.2 -7z"/>
  <path d="M107.2 108.7 c-1.5 -4.1 -1.6 -10.2 -0.2 -12.8 0.7 -1.2 2.1 -1.9 4 -1.9 l3 0 -2.6 4 c-2.6 3.9 -2.6 4.1 -0.9 6.6 1.4 2.2 1.5 3 0.4 5 -1.7 3.2 -2.3 3 -3.7 -0.9z"/>
  <path d="M113.1 110.3 c0.7 -1 1.5 -2 1.6 -2.2 0.2 -0.2 0.3 0.5 0.3 1.7 0 1.4 -0.6 2.2 -1.6 2.2 -1.4 0 -1.5 -0.3 -0.3 -1.7z"/>
  <path d="M113.2 104.8 c-1.6 -1.6 -1.5 -4 0.2 -6.4 1.3 -1.7 1.4 -1.5 1.4 2.9 -0.1 2.6 -0.2 4.7 -0.3 4.7 0 0 -0.6 -0.5 -1.3 -1.2z"/>
  <path d="M124 88 c4 -3.1 15.1 -8.7 19.9 -10 6.6 -1.8 14.1 -2.8 14.1 -2 0 0.4 -2.4 1.1 -5.2 1.4 -5.3 0.7 -22 7.2 -22.6 8.8 -0.2 0.4 -1 0.8 -1.7 0.8 -0.7 0 -1.5 0.7 -1.9 1.5 -0.3 0.8 -1.6 1.5 -2.8 1.5 l-2.3 0 2.5 -2z"/>
  <path d="M119 86 c0 -2.3 0.5 -3.3 2 -3.7 1.1 -0.3 2 -0.9 2 -1.4 0 -0.5 0.7 -0.9 1.5 -0.9 0.8 0 1.5 -0.4 1.5 -0.9 0 -1.4 13.8 -6.8 20.4 -8 8.3 -1.5 11.6 -1.4 11.6 0.4 0 0.8 -0.2 1.5 -0.4 1.5 -0.2 0 -3.8 0.6 -7.9 1.4 -8.7 1.7 -18.9 6.1 -25.8 11.2 l-4.9 3.6 0 -3.2z"/>
 </g>
 <g fill="#259ef0">
  <path d="M184.8 251.9 c-2.4 -1.4 -2.3 -2.9 0.2 -2.9 1.2 0 3.2 -1.1 4.5 -2.5 2.5 -2.4 2.5 -2.4 2.5 -23.9 0 -11.8 0.3 -22.1 0.6 -23 0.3 -0.9 1.6 -1.6 2.8 -1.6 4.6 0 12 -4.8 14.9 -9.5 1.5 -2.5 2.7 -4.7 2.7 -4.9 0 -0.2 -0.9 -0.6 -2.1 -0.9 -2.6 -0.7 -2.1 -2.7 0.9 -3.8 1.8 -0.7 2.2 -0.5 2.2 1.4 0 4.2 5 -5.8 5.4 -10.8 0.2 -2.9 1 -5.1 2.1 -5.9 1.5 -1.1 1.8 -2.9 1.8 -12.2 0 -7 -0.7 -13.4 -1.8 -17.8 -1.1 -4.4 -1.4 -7.1 -0.7 -7.5 0.5 -0.3 1.3 -3.5 1.7 -7.1 l0.6 -6.5 -5 -8.1 c-5.8 -9.4 -15.1 -19.1 -21.6 -22.5 -4.1 -2.2 -4.5 -2.7 -4.5 -6.1 0 -4.6 2.5 -5.3 3.4 -1 0.4 1.8 2 3.5 4.6 4.9 9 5.2 22.6 20.5 26.6 29.9 1.2 2.7 1.7 6.6 1.6 12.9 -0.1 5 0.3 11.9 0.9 15.5 1.2 7.4 1.4 25.6 0.4 31.5 -0.8 5.1 -4.5 16.6 -5.7 18.2 -0.5 0.7 -0.5 1.4 0.2 1.8 0.6 0.3 0.8 1 0.6 1.4 -0.3 0.4 2.2 0.7 5.4 0.7 3.3 -0.1 6 0.2 6 0.5 0 0.8 3.3 0.4 10.4 -1.2 6.1 -1.3 6.2 -1.5 6.9 -9.4 0.3 -2.2 0.4 5.8 0.3 17.7 -0.1 20 -0.3 21.9 -2.1 24.3 -2.5 3.3 -8.9 6.7 -53.1 27.6 -4.4 2.1 -10.8 2.5 -13.6 0.8z"/>
  <path d="M216 166.5 c0 -1.4 0.4 -2.5 0.9 -2.5 0.4 0 0.6 1.1 0.3 2.5 -0.2 1.4 -0.6 2.5 -0.8 2.5 -0.2 0 -0.4 -1.1 -0.4 -2.5z"/>
  <path d="M190 25.5 c-0.7 -1.4 -1.9 -2.5 -2.7 -2.5 -0.7 0 -1.3 -0.9 -1.3 -2 0 -1.3 0.7 -2 1.9 -2 2.5 0 7.1 4.5 7.1 7 0 2.9 -3.4 2.6 -5 -0.5z"/>
 </g>
 <g fill="#2d91d4">
  <path d="M188 249.5 c0 -1.4 0.4 -2.5 0.9 -2.5 0.5 0 1.3 -0.9 1.6 -2 0.9 -2.7 4.5 -2.7 4.5 0 0 2.2 -4.1 7 -6 7 -0.5 0 -1 -1.1 -1 -2.5z"/>
  <path d="M192 202.1 c0 -4.8 0.8 -7.1 2.5 -7.1 0.7 0 1.8 -0.7 2.5 -1.4 0.6 -0.8 3.3 -1.6 5.8 -1.8 3.8 -0.2 4.7 -0.7 5 -2.3 0.2 -1.1 1.1 -2.6 2 -3.3 1.4 -1 1.4 -1.6 0.4 -3.2 -1.6 -2.6 -1.6 -2.6 1.8 -4 3.8 -1.6 5.6 -4.5 7.7 -12.2 2.2 -8.1 2.4 -31.9 0.4 -39.7 -1.3 -5.3 -1.3 -5.5 0.8 -6.9 4.6 -3.1 1.7 -11.4 -8.7 -24.2 -5 -6.2 -13.2 -13.3 -17.4 -15.1 -2 -0.8 -2.8 -1.9 -2.8 -3.5 0 -3.1 2.6 -3.2 3.4 -0.1 0.3 1.2 1.9 3 3.5 4 5.7 3.3 18.9 16.7 22.6 22.9 l3.8 6.3 0.5 17 c1.2 38.7 0.5 42.6 -9.6 59.3 -4.9 8 -6.4 9.6 -10.6 11.7 -2.8 1.4 -6 2.5 -7.3 2.5 -1.6 0 -2.4 0.7 -2.9 2.5 -1 4.1 -3.4 3.1 -3.4 -1.4z"/>
  <path d="M183 196 c0 -1.2 0.6 -2 1.3 -1.9 2.6 0.3 3.7 -0.2 3.7 -1.7 0 -0.8 0.5 -1.2 1 -0.9 0.6 0.3 1 1.9 1 3.6 0 2.7 -0.3 2.9 -3.5 2.9 -2.9 0 -3.5 -0.4 -3.5 -2z"/>
  <path d="M162.3 191.3 c-3 -0.6 -3.2 -4.3 -0.3 -4.3 2.9 0 9 2.7 9 3.9 0 1.1 -4.3 1.3 -8.7 0.4z"/>
  <path d="M197.8 189.3 c1.2 -0.2 3.2 -0.2 4.5 0 1.2 0.2 0.2 0.4 -2.3 0.4 -2.5 0 -3.5 -0.2 -2.2 -0.4z"/>
  <path d="M168.5 187.7 c-1.1 -0.7 -3.6 -1.8 -5.5 -2.4 -3.5 -1.2 -3.5 -1.2 1.8 -0.9 5.8 0.3 6.5 0.7 6 3 -0.2 1.2 -0.7 1.3 -2.3 0.3z"/>
  <path d="M145 185.6 c0 -2.3 0.2 -2.4 3.5 -1.3 1.9 0.6 3.5 1.6 3.5 2.4 0 0.8 -1.3 1.3 -3.5 1.3 -3 0 -3.5 -0.3 -3.5 -2.4z"/>
  <path d="M147.5 182 c-1.7 -0.7 -1.5 -0.9 1.3 -0.9 1.7 -0.1 3.2 0.4 3.2 0.9 0 1.2 -1.7 1.2 -4.5 0z"/>
  <path d="M129 177 c0 -2.5 -0.4 -3 -2.5 -3 -2 0 -2.5 -0.5 -2.5 -2.5 0 -4.1 2 -3.1 8.5 4.3 l3.7 4.2 -3.6 0 c-3.3 0 -3.6 -0.2 -3.6 -3z"/>
  <path d="M134 174.5 c-1 -1.2 -1 -1.5 0.4 -1.5 0.9 0 1.6 0.7 1.6 1.5 0 0.8 -0.2 1.5 -0.4 1.5 -0.2 0 -0.9 -0.7 -1.6 -1.5z"/>
  <path d="M127.5 168.9 l-3 -1.9 2.8 0 c1.6 0 3 0.7 3.4 1.5 0.8 2.3 0.1 2.4 -3.2 0.4z"/>
  <path d="M97 156.5 c0 -2.2 0.5 -3.5 1.3 -3.5 0.8 0 1.8 1.6 2.4 3.5 1.1 3.3 1 3.5 -1.3 3.5 -2.1 0 -2.4 -0.5 -2.4 -3.5z"/>
  <path d="M218.3 155.5 c0 -2.2 0.2 -3 0.4 -1.7 0.2 1.2 0.2 3 0 4 -0.3 0.9 -0.5 -0.1 -0.4 -2.3z"/>
  <path d="M102.8 155.5 c-0.3 -1.4 -0.1 -2.5 0.3 -2.5 0.5 0 0.9 1.1 0.9 2.5 0 1.4 -0.2 2.5 -0.4 2.5 -0.2 0 -0.6 -1.1 -0.8 -2.5z"/>
  <path d="M97.4 137.8 c1.1 -9.6 3.6 -18.8 5.2 -18.8 0.9 0 1.4 -1.1 1.4 -2.9 0 -4.5 1 -6.1 3.6 -6.1 1.3 0 2.4 0.2 2.4 0.4 0 0.2 -1.3 3.2 -2.9 6.6 -2.7 5.7 -5.2 14.3 -6.6 23.3 -0.4 2.5 -1.1 3.7 -2.2 3.7 -1.3 0 -1.5 -0.9 -0.9 -6.2z"/>
  <path d="M103.6 138.7 c0.3 -5.2 3.4 -17 4.2 -16.3 0.2 0.3 -0.5 4 -1.6 8.3 -1.2 4.3 -2.3 8.9 -2.5 10.3 -0.3 1.4 -0.3 0.3 -0.1 -2.3z"/>
  <path d="M218.2 137 c0 -1.9 0.2 -2.7 0.5 -1.7 0.2 0.9 0.2 2.5 0 3.5 -0.3 0.9 -0.5 0.1 -0.5 -1.8z"/>
  <path d="M42.5 123.2 c-2.8 -2.6 -9.7 -9 -15.3 -14.3 -13.4 -12.5 -13.5 -13.2 -2.2 -24.1 9.6 -9.3 13.2 -11.5 16.8 -9.9 1.3 0.7 7.6 5.1 14 9.9 6.3 4.8 15.5 11.7 20.5 15.5 9 6.8 10.5 7.5 12.3 5.7 0.7 -0.7 2.4 0 5.2 2.1 3.8 2.8 4.2 3.5 4.2 7.2 0 2.5 -0.8 5 -1.8 6.3 -3.5 4.1 -6.4 4.6 -26.2 3.8 -16.5 -0.6 -18.8 -0.5 -20.2 1 -0.9 0.9 -1.8 1.6 -2 1.6 -0.2 0 -2.6 -2.2 -5.3 -4.8z"/>
  <path d="M109 118.3 c0.1 -0.5 0.7 -1.9 1.5 -3.3 1 -1.8 1.4 -2 1.5 -0.8 0 2.3 -1.1 4.8 -2.1 4.8 -0.5 0 -0.9 -0.3 -0.9 -0.7z"/>
  <path d="M217 118.4 c0 -0.4 0.7 -1.2 1.6 -1.9 1.4 -1 1.3 -1.7 -1.7 -6.6 -4.7 -7.9 -11.3 -15.8 -17.2 -20.6 -2.9 -2.4 -5.5 -4.3 -5.8 -4.3 -0.4 0 -1 -0.7 -1.3 -1.6 -0.3 -0.8 2.2 0.4 5.6 2.8 7.3 5.1 14.9 14 19.8 23.1 2.9 5.5 3.2 6.7 2.1 8.1 -1.3 1.6 -3.1 2.2 -3.1 1z"/>
  <path d="M112 92.9 c0 -4.3 3 -7.1 7.1 -6.7 l3 0.3 -5 5 -5.1 4.9 0 -3.5z"/>
  <path d="M118.5 93 c1.7 -1.7 3.1 -2.7 3.3 -2.1 0.5 1.4 -3 5.1 -4.7 5.1 -1 0 -0.5 -1 1.4 -3z"/>
  <path d="M138 80 c1.9 -1.3 3 -1.3 3 0 0 0.6 -1 1 -2.2 1 -1.9 0 -2 -0.2 -0.8 -1z"/>
  <path d="M180.8 79.3 c-1 -0.2 -1.8 -0.8 -1.8 -1.3 0 -0.8 6.9 0.6 7.9 1.6 0.6 0.5 -3.9 0.3 -6.1 -0.3z"/>
  <path d="M134 76.5 c0 -2.2 0.4 -2.5 3.6 -2.5 4.4 0 4.2 1.8 -0.4 3.7 -3.1 1.3 -3.2 1.2 -3.2 -1.2z"/>
  <path d="M183.8 76.1 c-6.5 -2 -6.6 -4.6 -0.3 -3.8 5.3 0.5 5.8 0.9 5.3 3.4 -0.3 1.8 -0.5 1.8 -5 0.4z"/>
  <path d="M151.3 76.3 c0.9 -0.2 2.5 -0.2 3.5 0 0.9 0.3 0.1 0.5 -1.8 0.5 -1.9 0 -2.7 -0.2 -1.7 -0.5z"/>
  <path d="M149 72 c0 -1.6 0.7 -2 3.5 -2 4 0 4.9 2.4 1.3 3.4 -3.8 1 -4.8 0.7 -4.8 -1.4z"/>
  <path d="M191 38 c0 -9.9 -0.2 -11.1 -2.2 -13 -1.2 -1.1 -3.4 -2 -5 -2 -3.2 0 -3.7 -1.5 -0.9 -3 3.3 -1.7 6.1 -1.1 9.2 1.9 2.9 2.9 2.9 3 2.9 15 0 11.4 -0.1 12.1 -2 12.1 -1.9 0 -2 -0.7 -2 -11z"/>
 </g>
 <g fill="#cf6e3b">
  <path d="M171 191 c0 -0.5 0.6 -1 1.4 -1 0.8 0 1.8 0.5 2.1 1 0.3 0.6 -0.3 1 -1.4 1 -1.2 0 -2.1 -0.4 -2.1 -1z"/>
  <path d="M175.5 189.4 c-1.1 -0.8 -2.5 -1.2 -3.1 -1 -1 0.4 -2.3 -2.2 -2.4 -4.5 0 -0.4 2.1 -1.2 4.6 -1.8 2.6 -0.7 6.6 -2.5 9 -4.2 l4.4 -3 0 2.6 c0 1.8 -0.6 2.9 -2 3.2 -1.1 0.3 -1.7 0.9 -1.4 1.4 0.3 0.5 -0.4 0.9 -1.5 0.9 -1.2 0 -2.1 0.5 -2.1 1 0 0.6 -0.6 1 -1.4 1 -0.9 0 -1.6 1.2 -1.8 2.9 -0.3 2.8 -0.4 2.9 -2.3 1.5z"/>
  <path d="M160 188 c0 -1.1 1.4 -1.1 5 0 2.2 0.7 2.1 0.8 -1.2 0.9 -2.1 0.1 -3.8 -0.3 -3.8 -0.9z"/>
  <path d="M193.6 184.8 c-1.4 -5.4 -0.8 -6.8 2.8 -6.8 3.7 0 4.6 1.2 4.6 6.1 0 2.6 -0.3 2.9 -3.4 2.9 -2.6 0 -3.5 -0.5 -4 -2.2z"/>
  <path d="M156.5 184.4 c-8.1 -1.6 -21.5 -7.8 -21.5 -10 0 -1.1 1 -0.8 3.9 1.1 5.8 3.9 13.8 6.6 21.3 7.2 4.8 0.4 6.8 1 6.8 1.9 0 1.6 -1.2 1.6 -10.5 -0.2z"/>
  <path d="M156.8 176.3 c-1 -0.2 -1.8 -0.9 -1.8 -1.5 0 -0.5 0.7 -0.7 1.6 -0.4 0.9 0.3 2.4 0.6 3.5 0.6 1 0 1.9 0.5 1.9 1 0 1 -2.1 1.1 -5.2 0.3z"/>
  <path d="M166 176.1 c0 -0.6 1 -1.1 2.3 -1.2 4.2 -0.1 9.2 -2.5 8.9 -4.3 -0.2 -1.1 0.4 -1.6 2.3 -1.6 2 0 2.5 -0.5 2.5 -2.5 0 -2 0.5 -2.5 2.5 -2.5 1.4 0 2.5 0.4 2.5 0.9 0 1.8 -5.3 7.2 -8.9 9 -4.6 2.4 -12.1 3.7 -12.1 2.2z"/>
  <path d="M146.3 172.9 c-3.7 -1.8 -5.7 -3.9 -3.7 -3.9 1.1 0 8.4 4.5 8.4 5.3 0 1 0.1 1 -4.7 -1.4z"/>
  <path d="M192.1 168.5 c2.4 -4 3.9 -4.5 3.9 -1.2 0 2.7 -1.7 4.7 -4.2 4.7 -1.6 0 -1.6 -0.3 0.3 -3.5z"/>
  <path d="M122 169.5 c0 -1.9 1.1 -1.9 3.6 0 1.8 1.4 1.8 1.4 -0.8 1.5 -1.8 0 -2.8 -0.5 -2.8 -1.5z"/>
  <path d="M124.8 167.4 c-3 -1.6 -3.6 -3 -1.6 -3.6 0.9 -0.3 0.8 -1.6 -0.7 -4.9 -1.1 -2.4 -2.2 -4.6 -2.6 -4.9 -1.3 -1 -3.9 -7 -3.9 -9 0 -3.1 1.3 -2.4 3.2 1.8 l1.6 3.7 0.1 -5.7 c0.1 -5.9 -0.9 -7.3 -2.9 -4 -0.9 1.4 -1 1.2 -0.8 -1.3 0.3 -2.6 0.9 -3.1 4.1 -3.9 3.2 -0.8 3.7 -1.3 3.7 -3.9 0 -2 0.6 -3 1.9 -3.4 1.1 -0.3 2.1 -1.3 2.4 -2.4 0.3 -1.2 1.4 -1.9 3 -1.9 2 0 3.7 -1.6 3.7 -3.5 0 -0.1 -1.8 -0.5 -4 -0.9 -3.7 -0.6 -4 -0.8 -4 -3.9 0 -1.8 0.7 -4.2 1.5 -5.3 0.8 -1 1.5 -2.9 1.5 -4 0 -4.2 10.5 -11.4 20.5 -14 10.2 -2.8 25.3 -0.6 34.7 4.9 5.9 3.4 12.4 10.7 15.3 16.9 2.1 4.5 2.4 6.6 2.4 18 0.1 12.2 0 12.8 -1.9 12.8 -1.1 0 -2 0.7 -2 1.5 0 0.8 -0.7 1.5 -1.5 1.5 -0.8 0 -1.5 -0.7 -1.5 -1.5 0 -2.1 -1.3 -1.9 -3.5 0.5 -2.7 2.9 -3.5 2.5 -3.5 -1.9 0 -2.8 -0.8 -4.8 -2.7 -7 -3.2 -3.7 -6 -3.9 -9.8 -0.9 l-2.8 2.1 1.2 -2.1 c1.6 -3 4.6 -4.4 8.2 -3.8 3.9 0.6 6.5 3 8.1 7.3 1.6 4.3 4.4 4.2 4 -0.2 -0.4 -4.3 -3.9 -14.5 -6.1 -18.2 l-2 -3.2 -5.1 2 c-7.6 2.9 -18.2 4.9 -25.7 4.9 l-6.6 0 2.2 -2.4 2.3 -2.4 -4.4 0.5 c-2.3 0.3 -6.1 1.2 -8.3 1.9 l-4 1.2 3.6 0.1 c2 0.1 4.1 0.7 4.7 1.4 0.8 0.9 -0.2 1.2 -4.8 1.2 -4.9 0 -5.6 -0.2 -4.7 -1.4 2.4 -2.9 -3.2 0.9 -6.8 4.6 -7.8 8 -8.7 23.7 -2 34.3 2.2 3.5 2.3 4 0.8 4 -1 -0.1 -3 -0.8 -4.5 -1.6z m29.2 -57.9 c2 -2.5 0.8 -5 -2.5 -5 -2.1 0 -3.1 0.5 -3.3 1.8 -0.4 2.1 1.4 4.7 3.3 4.7 0.7 0 1.8 -0.7 2.5 -1.5z"/>
  <path d="M135.7 163.1 c-2.2 -3.8 -2.2 -6.1 0.2 -6.1 2.1 0 3.1 1.9 3.1 6.1 0 3.7 -1.1 3.7 -3.3 0z"/>
  <path d="M100 158.8 c0 -1.2 0.1 -1.9 0.3 -1.7 0.1 0.2 0.9 1.2 1.6 2.2 1.2 1.4 1.1 1.7 -0.3 1.7 -1 0 -1.6 -0.8 -1.6 -2.2z"/>
  <path d="M197.1 160.1 c-1.8 -1.2 -0.6 -8.1 1.4 -8.1 0.8 0 1.5 0.6 1.5 1.3 0.1 0.6 0.7 0.1 1.5 -1.3 1.7 -2.9 1.8 -2 0.6 3.3 -0.8 3.2 -0.7 3.6 0.5 2.6 0.7 -0.6 1.9 -2.6 2.6 -4.5 1.5 -4.2 2.8 -4.4 2.8 -0.5 0 5.9 -6.3 10.1 -10.9 7.2z"/>
  <path d="M104.2 158.8 c-1.9 -1.9 -1.5 -4.8 0.8 -4.8 1.6 0 2 0.7 2 3 0 3.2 -0.9 3.7 -2.8 1.8z"/>
  <path d="M181.5 157.4 c-2.2 -1.3 -6.1 -2.9 -8.7 -3.6 -2.7 -0.6 -4.8 -1.5 -4.8 -2 0 -2.6 15.9 2.9 18.9 6.6 2 2.4 -0.5 1.9 -5.4 -1z"/>
  <path d="M159 157 c0 -2.1 1 -2.4 4.8 -1.4 3.6 1 2.7 3.4 -1.3 3.4 -2.8 0 -3.5 -0.4 -3.5 -2z"/>
  <path d="M134 153.1 c0 -1.8 2.7 -2.9 8.8 -3.6 3.8 -0.4 6.2 -0.3 6.2 0.3 0 0.5 -2.7 1.2 -6 1.6 -3.3 0.4 -6.2 1.1 -6.5 1.6 -0.8 1.2 -2.5 1.3 -2.5 0.1z"/>
  <path d="M179 151.5 c-1 -1.2 -1 -1.5 0.1 -1.5 1.2 0 1.2 -0.2 0 -0.9 -0.9 -0.6 -1.1 -1.8 -0.6 -4.1 0.4 -2 1 -2.8 1.4 -2.1 1 1.6 5.8 -0.5 6.5 -2.8 0.3 -0.9 0.2 0.9 -0.1 3.9 -0.3 3 -0.9 6.3 -1.5 7.3 -1.1 2.1 -4.1 2.2 -5.8 0.2z"/>
  <path d="M157.3 151.2 c-2.4 -0.2 -4.3 -0.8 -4.3 -1.4 0 -1.1 7.6 -0.6 8.7 0.6 1 1 0.1 1.1 -4.4 0.8z"/>
  <path d="M140.3 146.6 c2.3 -1.8 2.2 -3.6 -0.3 -3.6 -1.3 0 -2 -0.7 -2 -2 0 -1.2 0.7 -2 1.8 -2 1 0 2.8 -0.7 4 -1.6 2.2 -1.5 2.2 -1.5 2.2 2.6 0 5.6 -1.4 8 -4.8 8 -2.5 -0.1 -2.5 -0.2 -0.9 -1.4z"/>
  <path d="M130.2 138 c-1.5 -2.4 -1.5 -3.3 -0.1 -2.4 0.6 0.3 2.4 -1 4 -2.9 4.8 -5.8 13.1 -5.9 15.8 -0.1 1.7 3.8 1.2 5.3 -0.6 1.9 -1.4 -2.7 -1.7 -2.8 -2.3 -1 -0.6 1.8 -0.7 1.8 -1.2 -0.3 -1.3 -4.8 -9.9 -1.5 -11.4 4.3 -0.7 3 -2.5 3.2 -4.2 0.5z"/>
  <path d="M187.6 132.4 c-1.5 -1.4 -2.6 -2.7 -2.3 -3 0.2 -0.3 1.8 0.6 3.3 2 1.6 1.3 2.7 2.7 2.4 2.9 -0.3 0.3 -1.8 -0.6 -3.4 -1.9z"/>
  <path d="M180 131 c0 -0.7 2.4 -2 3.6 -2 1.3 0 0.1 1.9 -1.6 2.3 -1.1 0.3 -2 0.2 -2 -0.3z"/>
  <path d="M112 101.1 c0 -0.5 1.1 -2.3 2.5 -3.8 l2.5 -2.8 -0.2 3.5 c-0.2 2.8 -0.8 3.6 -2.5 3.8 -1.3 0.2 -2.3 -0.1 -2.3 -0.7z"/>
  <path d="M206.2 97.8 c-1.4 -1.4 -1.6 -6.2 -0.2 -5.3 0.5 0.3 1.9 1.9 3 3.5 2 2.8 2 3 0.3 3 -1.1 0 -2.4 -0.5 -3.1 -1.2z"/>
  <path d="M110 96.5 c0 -0.8 0.7 -1.5 1.6 -1.5 1.4 0 1.4 0.3 0.4 1.5 -0.7 0.8 -1.4 1.5 -1.6 1.5 -0.2 0 -0.4 -0.7 -0.4 -1.5z"/>
  <path d="M184.3 82.3 c-0.7 -0.2 -1.3 -1.3 -1.3 -2.4 0 -1.7 0.3 -1.8 3.2 -0.6 3.9 1.6 4.9 3.7 1.6 3.6 -1.2 0 -2.9 -0.3 -3.5 -0.6z"/>
  <path d="M166.3 78.3 c-0.7 -0.2 -1.3 -1.1 -1.3 -1.9 0 -1.5 1.2 -1.7 4.8 -0.8 1.2 0.4 2.2 1.3 2.2 2 0 1.4 -3.2 1.8 -5.7 0.7z"/>
  <path d="M187 77 c-1.2 -0.8 -1.1 -1 0.8 -1 1.2 0 2.2 0.5 2.2 1 0 1.3 -1.1 1.3 -3 0z"/>
  <path d="M166.8 72.3 c1.2 -0.2 3 -0.2 4 0 0.9 0.3 -0.1 0.5 -2.3 0.4 -2.2 0 -3 -0.2 -1.7 -0.4z"/>
 </g>
 <g fill="#3584ba">
  <path d="M193 198 c0 -0.9 -1.3 -1 -4.3 -0.6 -2.4 0.4 -6.3 0.4 -8.5 0 -3.4 -0.5 -4.2 -1.1 -4.2 -2.8 0 -2.4 2.5 -2.7 7.3 -0.7 3.2 1.2 4.7 0.8 4.7 -1.5 0 -1.3 0.3 -1.3 2.2 0 2.3 1.7 6 2.1 7.1 0.9 0.4 -0.4 2.6 -0.8 4.9 -1.1 4.6 -0.4 7.1 -1.8 6.5 -3.6 -0.2 -0.6 0.3 -1.6 1.2 -2.2 1.2 -0.9 1.3 -1.7 0.4 -3.5 -0.9 -2.2 -0.7 -2.6 2.6 -4.4 3 -1.7 4 -3.1 6 -9 3.3 -9.8 4.1 -29 1.6 -40 -1.4 -6.4 -1.5 -7.9 -0.3 -8.6 0.7 -0.5 1.6 -0.9 1.9 -0.9 0.8 0 1.3 14.2 1.3 32.5 0 15.2 -1.1 19.3 -8 30.5 -7.3 11.9 -9.4 13.5 -19.1 15.5 -2.3 0.5 -3.3 0.3 -3.3 -0.5z"/>
  <path d="M166 192.2 c0 -0.5 -4 -1.4 -9 -2.1 -4.9 -0.7 -9 -1.7 -9 -2.2 0 -0.5 -1.3 -0.9 -3 -0.9 -2.5 0 -3 -0.4 -3 -2.5 0 -2.5 0 -2.5 3.6 -1 1.9 0.8 7.2 2.1 11.6 3 4.5 0.8 9.9 2 12 2.7 4.9 1.4 5.1 3.8 0.3 3.8 -1.9 0 -3.5 -0.4 -3.5 -0.8z"/>
  <path d="M192.4 191 c-2.8 -1.1 -4 -3 -2 -3 0.9 0 1.6 0.4 1.6 0.9 0 0.5 2.6 0.8 5.8 0.6 3.1 -0.1 4.1 0 2.2 0.2 -1.9 0.2 -3.9 0.8 -4.5 1.3 -0.5 0.4 -2 0.4 -3.1 0z"/>
  <path d="M168.5 187.5 c-1.9 -1.4 -1.8 -1.4 1.3 -1.5 2.2 0 3.2 0.4 3 1.2 -0.6 1.8 -2.2 2 -4.3 0.3z"/>
  <path d="M157.5 184.5 c-7.9 -1.5 -15.5 -4.3 -11.8 -4.4 1.2 -0.1 2.4 0.3 2.7 0.7 0.3 0.5 4.4 1.5 9.1 2.2 4.7 0.7 8.5 1.7 8.5 2.2 0 0.4 -0.3 0.8 -0.7 0.7 -0.5 -0.1 -3.9 -0.7 -7.8 -1.4z"/>
  <path d="M129.3 179.5 c-0.7 -0.8 -1.3 -1.9 -1.3 -2.5 0 -0.5 -0.4 -1 -1 -1 -0.5 0 -1 -0.6 -1 -1.4 0 -0.7 -1.2 -1.6 -2.7 -1.9 -4.1 -0.9 -5.5 -2.2 -5.1 -4.6 l0.3 -2.2 5.2 2.7 c2.9 1.4 6 3.8 7 5.4 0.9 1.6 2.7 3.4 4 4.1 1.3 0.7 2.3 1.6 2.3 2.1 0 1.4 -6.4 0.8 -7.7 -0.7z"/>
  <path d="M210.6 175.3 c2.6 -1.3 3.5 -2.7 5.2 -8.2 1.1 -3.6 2.1 -5.9 2.1 -5 0.1 0.8 -0.6 3.9 -1.4 6.7 -1.5 5.1 -4.5 8.3 -7.5 8.1 -0.8 0 -0.1 -0.7 1.6 -1.6z"/>
  <path d="M130.7 171.5 c-2.6 -2.4 -6.1 -4.6 -7.7 -5 -3.8 -0.8 -4.9 -2.5 -1.6 -2.5 3.4 0 7.6 2 7.6 3.7 0 0.7 0.5 1.3 1.1 1.3 1.1 0 6.9 5.4 6.9 6.5 0 1.3 -1.9 0.1 -6.3 -4z"/>
  <path d="M102 165.1 c0 -0.5 -0.9 -1.1 -2 -1.4 -1.5 -0.4 -2 -1.4 -2 -4.1 0 -4.4 0.9 -4.5 3.8 -0.6 1.2 1.6 3.4 3.3 4.7 3.6 3.9 1 3.1 3.4 -1 3.4 -1.9 0 -3.5 -0.4 -3.5 -0.9z"/>
  <path d="M106.4 160 c-2.2 -0.9 -4 -4 -2.3 -4 0.5 0 1.2 0.7 1.5 1.5 0.4 0.8 1.2 1.5 2 1.5 0.8 0 1.4 0.5 1.4 1 0 0.6 -0.1 1 -0.2 0.9 -0.2 0 -1.2 -0.4 -2.4 -0.9z"/>
  <path d="M98 132.5 c0 -2.8 0.4 -3.5 2 -3.5 2.1 0 2.4 1 1.4 4.8 -1 3.6 -3.4 2.7 -3.4 -1.3z"/>
  <path d="M216.6 128.4 c-0.4 -2 -0.5 -3.8 -0.3 -4 0.3 -0.3 0.8 1.1 1.1 3.2 0.4 2 0.5 3.8 0.3 4 -0.3 0.3 -0.8 -1.1 -1.1 -3.2z"/>
  <path d="M96.2 123.5 c0.4 -3.5 0.2 -4.5 -0.9 -4.5 -0.9 0 -1.3 -0.6 -0.9 -1.5 0.3 -0.9 0 -1.5 -0.9 -1.5 -0.8 0 -1.5 -0.5 -1.5 -1.1 0 -0.6 0.7 -0.9 1.5 -0.5 2.6 1 1.6 -0.2 -2.9 -3.4 l-4.4 -3.2 8.2 -7.1 c4.4 -3.9 8.6 -7.7 9.1 -8.3 0.9 -1 19.1 -17.6 30.5 -27.9 9.2 -8.2 25.4 -23.1 27.4 -25.1 1.2 -1.1 6.4 -5.9 11.8 -10.7 8.1 -7.3 10.2 -8.7 13 -8.7 4 0 7.8 3.1 7.8 6.3 0.1 10.9 1.2 51.6 1.5 53 0.2 0.9 0.1 1.7 -0.1 1.7 -1.5 0 -10.4 -5.2 -10.4 -6.1 0 -0.6 -0.8 -0.8 -1.8 -0.5 -2.3 0.8 -12.6 -1.1 -13 -2.4 -0.6 -1.8 -7.3 -2.2 -13.5 -1 -3.4 0.8 -6.4 1.6 -6.7 2 -0.3 0.4 -3.6 1.6 -7.5 2.8 -9.5 2.9 -18.5 8.4 -26.2 16.1 -6.9 7 -8.3 10 -6.1 13.3 1.4 2 1.2 2.8 -2.3 9.8 -2.1 4.1 -4.1 8.7 -4.4 10.3 -0.6 2.3 -1.2 2.7 -4.2 2.7 l-3.6 0 0.5 -4.5z m8.9 -9.5 c0.5 0 0.9 -4 0.9 -9 0 -8.3 0.1 -9 2 -9 1.5 0 2 -0.6 1.9 -2.7 -0.1 -1.7 -0.3 -2.1 -0.6 -1 -0.3 1.1 -1.4 1.7 -3.4 1.7 -2.6 0 -2.9 0.4 -2.9 3 0 2.7 -0.3 3 -3 3 -2.6 0 -3 0.3 -3 2.9 0 1.6 -0.5 3.1 -1.1 3.3 -1.6 0.5 0 3.5 2.2 4.1 1.1 0.3 2.3 1.5 2.6 2.7 0.4 1.3 1.1 1.9 2 1.6 0.8 -0.3 1.9 -0.6 2.4 -0.6z"/>
  <path d="M108 120.3 c0 -0.5 0.5 -1.5 1 -2.3 0.8 -1.2 1 -1.1 1 0.8 0 1.2 -0.4 2.2 -1 2.2 -0.5 0 -1 -0.3 -1 -0.7z"/>
  <path d="M111 114.3 c0 -0.5 0.5 -1.5 1 -2.3 0.8 -1.2 1 -1.1 1 0.8 0 1.2 -0.4 2.2 -1 2.2 -0.5 0 -1 -0.3 -1 -0.7z"/>
  <path d="M118 93.5 c2.5 -2.5 4.6 -4.1 4.8 -3.5 0.4 1.1 -2.2 4 -3.6 4 -0.5 0 -1.2 0.9 -1.5 2 -0.3 1.1 -1.3 2 -2.3 2 -1.4 0 -0.7 -1.1 2.6 -4.5z"/>
  <path d="M127 86 c2.8 -2.2 4 -2.5 4 -1 0 0.6 -0.7 1 -1.5 1 -0.8 0 -1.5 0.5 -1.5 1 0 0.6 -0.8 1 -1.7 1 -1.5 0 -1.3 -0.4 0.7 -2z"/>
  <path d="M188.3 82.3 c-1.8 -0.9 -3.3 -2 -3.3 -2.5 0 -0.9 6.9 1.8 8.5 3.3 1.4 1.4 -1.6 1 -5.2 -0.8z"/>
  <path d="M142.5 78.5 c2.2 -0.8 4.9 -1.4 6 -1.4 1.1 0 0 0.7 -2.5 1.5 -2.5 0.7 -5.2 1.3 -6 1.3 -0.8 -0.1 0.3 -0.7 2.5 -1.4z"/>
  <path d="M173 77 c-3.4 -0.7 -3.4 -0.7 -0.5 -0.8 1.7 0 4.1 0.4 5.5 0.8 3.3 1.1 0 1.1 -5 0z"/>
 </g>
 <g fill="#1886d0">
  <path d="M186 250 c0 -1.1 0.5 -2 1.1 -2 3.1 0 3.9 -2.9 3.9 -14.3 0 -6.4 -0.3 -12.2 -0.6 -13.1 -0.5 -1.4 -3.2 -1.6 -19.4 -1.6 -17.2 0 -18.9 0.2 -19.2 1.8 -0.3 1.3 -1.9 0.2 -7.4 -4.8 -3.8 -3.6 -14.2 -13 -22.9 -21 -8.8 -7.9 -18.5 -16.7 -21.5 -19.6 -12.2 -11.5 -14.2 -12.8 -16.6 -10.4 -0.9 0.9 -14.8 -10.8 -29.2 -24.5 -1.2 -1 -1.2 -1.6 0 -3.4 1.2 -2 0.9 -2.6 -4.7 -7.9 -3.3 -3.2 -6.9 -6.9 -8 -8.2 l-2 -2.4 3.2 2.3 c1.8 1.2 4.1 2 5 1.7 1.9 -0.6 22.4 -0.8 33.1 -0.4 3.4 0.2 6.2 -0.1 6.2 -0.5 0 -0.5 0.4 -0.6 0.9 -0.2 0.5 0.3 1.2 0.1 1.6 -0.5 0.4 -0.6 1 -0.8 1.5 -0.5 0.4 0.3 1.5 -0.6 2.4 -2 1.4 -2.2 1.5 -2.5 0.1 -2.5 -0.8 0 -1.5 -0.4 -1.5 -1 0 -1.1 2.7 -0.9 5 0.4 1.2 0.7 1.3 0.7 0.2 -0.5 -0.7 -0.8 -1.7 -1.4 -2.2 -1.4 -0.5 0 -1.6 -0.9 -2.5 -2 -0.9 -1.1 -1.4 -1.3 -1 -0.5 0.4 0.8 -0.2 0.6 -1.2 -0.6 -1 -1.1 -2.1 -2 -2.5 -2 -0.3 0.1 -0.8 -0.1 -1 -0.4 -0.1 -0.3 -0.1 -0.4 0.1 -0.3 0.2 0.2 1 -0.5 1.6 -1.4 1.2 -1.6 1.6 -1.5 5.1 1 8.1 5.6 10.4 8.3 10.4 12.4 0 2.1 -0.7 5.8 -1.6 8.3 -0.9 2.5 -2.4 8.3 -3.3 12.9 -3.1 14.9 0.1 23.1 10.8 27.8 10.1 4.4 14.2 6.7 19.4 11.4 9.7 8.4 19.7 13.2 32.2 15.4 2.1 0.4 5.1 1.3 6.5 2 4.8 2.5 21.2 6.7 22.2 5.7 0.5 -0.5 1.2 -2.8 1.5 -5 0.5 -3.9 0.7 -4 5.2 -4.7 2.5 -0.3 5.7 -0.9 7.1 -1.2 2 -0.4 2.2 -0.2 1 0.6 -0.8 0.6 -1.1 1.1 -0.6 1.1 0.5 0 2 -1.2 3.3 -2.6 2 -2.1 2.2 -2.9 1.1 -3.6 -1 -0.7 -0.8 -0.8 0.5 -0.4 2.5 0.8 3.3 -1.9 1.4 -4.7 -1.4 -2.2 -1.4 -2.4 1.4 -3.4 2.7 -1 2.8 -1 1.9 0.8 -0.6 1 -0.7 1.9 -0.3 1.9 1.4 0 3.4 -4 2.7 -5.2 -0.4 -0.7 -0.3 -0.8 0.4 -0.4 0.8 0.5 1.2 0 1.2 -1.3 0 -1 0.5 -2.1 1 -2.3 0.6 -0.2 1.2 -1.7 1.3 -3.3 0.1 -1.7 0.6 -3.3 1 -3.6 0.4 -0.3 1.2 -6.4 1.7 -13.5 l0.9 -12.9 -0.4 13.5 c-0.3 15.5 -1.4 19.2 -9 31.4 -5.5 8.9 -9.2 12.3 -14.3 13.2 -2 0.4 -4 1.2 -4.4 1.8 -0.4 0.6 -0.8 11.1 -0.8 23.4 0 22.6 -0.4 25.2 -3.9 27.9 -2.5 1.9 -5.1 1.6 -5.1 -0.7z"/>
  <path d="M222.3 134.5 c0 -2.7 0.2 -3.8 0.4 -2.2 0.2 1.5 0.2 3.7 0 5 -0.2 1.2 -0.4 0 -0.4 -2.8z"/>
  <path d="M222.2 124 c0 -1.9 0.2 -2.7 0.5 -1.7 0.2 0.9 0.2 2.5 0 3.5 -0.3 0.9 -0.5 0.1 -0.5 -1.8z"/>
  <path d="M37.5 117.5 c-0.4 -1.1 -0.9 -2.2 -1.1 -2.5 -0.3 -0.8 7.5 -0.4 8.3 0.3 0.3 0.4 -0.8 0.7 -2.5 0.7 -2.1 0 -3.2 0.6 -3.5 1.8 -0.3 1.5 -0.5 1.5 -1.2 -0.3z"/>
  <path d="M193.8 79.9 c-2.1 -1.2 -2.4 -2.9 -0.4 -2.9 0.7 0 1.6 0.9 1.9 2 0.3 1.1 0.4 2 0.4 2 -0.1 0 -1 -0.5 -1.9 -1.1z"/>
 </g>
 <g fill="#107bc4">
  <path d="M173.8 242.8 c-5.7 -5 -11.2 -10.1 -12.4 -11.2 -1.1 -1.2 -5 -4.9 -8.7 -8.3 -3.7 -3.4 -6.7 -6.5 -6.7 -6.9 0 -0.3 -1 -1.4 -2.2 -2.4 l-2.3 -1.9 2.4 0.4 c1.4 0.3 2.8 1 3.2 1.7 0.6 1 6.2 1.3 23.3 1.3 21.9 0 22.5 0.1 23 2.1 0.3 1.1 0.6 8.3 0.7 15.9 0.1 13.9 0.1 14 -2.6 16.2 -4.5 3.9 -6.6 3.1 -17.7 -6.9z"/>
  <path d="M175.5 204 c-4.9 -1.5 -10.8 -3.5 -13 -4.4 -2.2 -0.8 -4.9 -1.5 -6 -1.6 -7.5 -0.2 -21.1 -6.9 -30.2 -14.9 -5.2 -4.7 -9.3 -7 -19.4 -11.4 -11.6 -5 -14.8 -14.7 -11 -32.9 1.1 -5.1 2.9 -11.6 4 -14.5 l2 -5.2 -4.7 -4 c-2.6 -2.2 -5.8 -4.9 -7.2 -6 l-2.5 -2 2.8 -2.6 c1.5 -1.4 2.7 -2.4 2.7 -2.2 0 0.2 2.9 -2.3 6.4 -5.7 11.2 -10.6 17.6 -16.2 18.1 -15.7 0.3 0.2 0.5 0 0.5 -0.6 0 -1 8.8 -4.9 10.3 -4.5 0.4 0.1 0.7 -0.2 0.7 -0.6 0 -0.7 6.3 -3.2 9 -3.7 0.3 0 1.1 -0.4 1.8 -0.8 0.6 -0.5 1.2 -0.6 1.2 -0.2 0 0.3 0.9 0.1 2 -0.5 1.9 -1 4.5 -1.4 16.5 -2.6 5.4 -0.5 15.2 0.4 21.3 2 1.2 0.3 3.2 0.8 4.3 1.1 6.8 1.4 8.8 2.7 9.4 5.6 0.4 1.7 0.5 3.2 0.3 3.4 -0.2 0.3 -3.2 -0.7 -6.5 -2 -8.3 -3.4 -14.8 -4.5 -25.7 -4.5 -16.2 0 -28.5 4.1 -40.4 13.2 -8.8 6.8 -12.7 12.3 -14.7 20.8 -1 4.1 -1.8 8.2 -1.7 9 0 0.8 -1.1 5.3 -2.6 10 -2.1 7.1 -2.6 10.5 -2.6 20.8 -0.1 12 0 12.4 2.4 14.2 1.4 1.1 3.9 2 5.7 2 1.7 0 3.4 0.4 3.8 0.9 0.3 0.5 1.9 1.2 3.6 1.6 1.6 0.4 4.2 1.8 5.6 3.1 2.5 2.3 3.5 2.8 5.8 2.5 0.6 0 1.9 1.4 3.1 3.2 2.3 3.5 9.5 8.9 12.2 9.2 4.2 0.4 8.1 1.7 8.5 2.9 0.7 1.9 5.8 3 6.7 1.6 1 -1.6 7 -0.3 7 1.5 0 0.7 1.1 1.6 2.4 1.9 1.3 0.3 3.1 0.9 4 1.2 1.1 0.4 1.6 0.1 1.6 -1 0 -1.4 0.4 -1.3 3.2 0.4 1.8 1.1 3.5 1.5 3.8 1 0.3 -0.5 1.9 0.2 3.4 1.5 3.2 2.7 7.1 3.3 7.9 1.1 0.3 -0.7 2.7 -1.7 5.4 -2 2.6 -0.4 5.9 -0.9 7.3 -1.2 2.3 -0.4 2.2 -0.3 -0.5 1 -1.6 0.9 -4 1.5 -5.2 1.6 -1.6 0 -2.4 0.8 -2.8 2.8 -1.9 8.9 -1.7 8.7 -6.5 8.9 -2.6 0.1 -8.3 -1 -13.5 -2.7z"/>
  <path d="M161 185 l-3.5 -0.7 3.8 -0.2 c2 0 3.7 0.4 3.7 0.9 0 0.6 -0.1 0.9 -0.2 0.9 -0.2 -0.1 -1.9 -0.5 -3.8 -0.9z"/>
  <path d="M210.3 182.2 c-0.9 -1.6 -0.7 -2 1.8 -2.9 l2.9 -1.1 -1.5 2.9 c-1.8 3.4 -1.7 3.4 -3.2 1.1z"/>
  <path d="M147.5 182 c-1.8 -0.8 -1.7 -0.9 0.8 -0.9 1.5 -0.1 2.7 0.4 2.7 0.9 0 1.2 -0.8 1.2 -3.5 0z"/>
  <path d="M211.7 175.1 c2.3 -2.2 3.9 -2.8 2.8 -1.1 -0.3 0.5 -1.6 1.5 -2.8 2.1 l-2.2 1.1 2.2 -2.1z"/>
  <path d="M132 172.5 c-1 -1.2 -1 -1.5 0.4 -1.5 0.9 0 1.6 0.7 1.6 1.5 0 0.8 -0.2 1.5 -0.4 1.5 -0.2 0 -0.9 -0.7 -1.6 -1.5z"/>
  <path d="M80.3 164 c-0.3 -1.1 -1.4 -2 -2.4 -2 -1 0 -2.6 -0.8 -3.6 -1.9 -3.6 -3.7 -6.2 -4.3 -21.4 -4.4 -13.6 -0.2 -14.9 0 -14.9 1.6 0 1.3 -0.8 1.7 -3.7 1.7 l-3.8 -0.1 4.6 -4.2 c2.5 -2.3 8.1 -7.4 12.5 -11.4 l8 -7.2 15.1 13.7 c13.2 11.9 14.9 13.8 13.4 14.9 -2.3 1.8 -3.2 1.6 -3.8 -0.7z"/>
  <path d="M118.6 164.5 c-1.9 -1.4 -1.9 -1.5 0.7 -1.5 1.7 0 2.7 0.5 2.7 1.5 0 1.9 -0.9 1.9 -3.4 0z"/>
  <path d="M111 161.4 l-3.5 -1.3 3.8 0 c2.6 -0.1 3.7 0.3 3.7 1.4 0 0.8 -0.1 1.4 -0.2 1.4 -0.2 -0.1 -1.9 -0.7 -3.8 -1.5z"/>
  <path d="M103.2 140 c0 -1.9 0.2 -2.7 0.5 -1.7 0.2 0.9 0.2 2.5 0 3.5 -0.3 0.9 -0.5 0.1 -0.5 -1.8z"/>
  <path d="M104.2 134 c0 -0.8 0.4 -2.6 0.8 -4 0.6 -2 0.8 -2.1 0.8 -0.5 0 1.1 -0.3 2.9 -0.8 4 -0.5 1.2 -0.8 1.4 -0.8 0.5z"/>
  <path d="M114 97.9 c0.7 -1.1 1.4 -1.8 1.7 -1.5 0.8 0.8 -0.5 3.6 -1.7 3.6 -0.7 0 -0.7 -0.6 0 -2.1z"/>
 </g>
 <g fill="#1270af">
  <path d="M177 198.1 c-3.6 -1 -11.8 -3.2 -18.4 -4.9 -15.1 -4 -21.3 -6.9 -29.8 -13.9 -4.5 -3.7 -9.7 -6.7 -15 -8.8 -10.7 -4.3 -14.2 -7.2 -15.7 -12.9 -0.6 -2.5 -1.1 -6 -1.1 -7.8 0 -4.4 3.5 -20.7 5.4 -25.2 1.3 -3.2 1.3 -3.7 -0.5 -6 -1.1 -1.3 -1.5 -2.7 -1 -3 0.5 -0.3 1.7 -3.8 2.6 -7.8 2.7 -11.3 4.2 -13.5 15 -22.4 10.6 -8.8 23.2 -13.2 40 -14.1 8.3 -0.4 13.1 -0.2 19.4 1.1 9.9 2 15.7 4.2 16.5 6.2 0.7 1.8 0.2 1.8 -3.4 -0.1 -8.3 -4.3 -12.2 -5 -28.5 -5 -15.8 0 -16.1 0.1 -23.8 3.3 -10 4.1 -15.7 7.9 -23.4 15.8 -6.6 6.6 -8.1 10.7 -4.8 13.4 1.3 1.1 1.1 1.8 -1 5.5 -5.2 8.7 -8.5 20 -9.2 30.9 -0.9 16.2 0.6 20 8.4 21 2.8 0.4 16.6 5.8 18.8 7.4 0.6 0.4 1.8 1.9 2.8 3.5 2.8 4.3 15.7 10.2 27.8 12.7 15.1 3.1 15.3 3.1 17 4.6 0.8 0.8 2.9 1.6 4.5 1.8 1.6 0.2 3.8 0.7 4.8 1.1 1.3 0.6 2.3 0.3 3.2 -1 1.1 -1.5 1.7 -1.6 2.6 -0.7 0.7 0.7 2.2 1.2 3.4 1.2 2.1 0 2.2 0.2 1.3 3 -1 2.8 -1.4 3 -6.2 2.9 -2.9 0 -8.1 -0.8 -11.7 -1.8z"/>
  <path d="M35.1 194.9 c-1.9 -1.1 -6.7 -5.3 -10.8 -9.3 -6.2 -6.1 -7.3 -7.7 -7.3 -10.5 0 -3.5 -0.3 -3.2 15.2 -17.8 l5.5 -5.2 11.5 0.4 c6.3 0.2 13.2 0 15.2 -0.6 3.1 -0.9 4.2 -0.7 7.4 1.2 2 1.2 4.4 2.8 5.2 3.6 0.8 0.7 3 2.5 4.8 3.9 1.7 1.4 2.9 3 2.6 3.6 -0.3 0.5 -4.7 4 -9.8 7.8 -5 3.8 -13.4 10.1 -18.6 14.1 -10.4 7.9 -15 10.9 -16.5 10.9 -0.5 0 -2.5 -0.9 -4.4 -2.1z"/>
  <path d="M192 190.8 c-1.4 -0.6 -2 -1.2 -1.4 -1.4 1.5 -0.6 6 1.1 4.8 1.8 -0.5 0.3 -2 0.1 -3.4 -0.4z"/>
  <path d="M175.9 189.4 c-0.7 -0.9 -2.1 -1.3 -3.4 -1 -1.2 0.3 -3.1 -0.1 -4.3 -1 -1.2 -0.8 -5.8 -2.1 -10.3 -2.9 -10.4 -1.9 -18.8 -5.8 -26.3 -12.3 -3.3 -2.9 -6.3 -5.2 -6.8 -5.2 -0.5 0 -3.7 -1.3 -7.1 -2.9 -3.4 -1.6 -7.7 -3.2 -9.5 -3.6 -4 -0.8 -6.3 -5.1 -6.1 -11.2 0.1 -3.3 0.3 -3 0.9 1.7 0.9 5.9 3.4 9 7.5 9 1.3 0 6.2 1.6 10.9 3.6 6.3 2.7 9.3 4.5 11.5 7.3 5.4 6.8 15.7 10.8 41.3 15.8 3.1 0.6 5.4 2.8 4 3.7 -0.6 0.3 -1.6 -0.1 -2.3 -1z"/>
  <path d="M105.5 128.7 c1.4 -7 9.4 -23.6 9.5 -19.8 0 0.7 -1 2.9 -2.1 4.8 -1.2 1.9 -3.5 6.7 -5.1 10.7 -1.6 3.9 -2.6 5.8 -2.3 4.3z"/>
  <path d="M113.2 104.8 c-2.4 -2.4 -1.1 -5.1 5.6 -11.7 4.8 -4.8 9.1 -7.9 15.1 -10.9 4.6 -2.3 9.1 -4.2 10 -4.2 0.9 0.1 -1.1 1.2 -4.4 2.7 -7.3 3.1 -13.4 7.2 -19.8 13.2 -6.1 5.7 -7.2 7.7 -5.6 9.7 1.5 1.8 0.7 2.8 -0.9 1.2z"/>
  <path d="M186.5 81 c-2.2 -1 -5.1 -2.3 -6.5 -2.9 -2.4 -1 -2.4 -1 0.5 -0.4 3.8 0.8 13.5 5.1 11.5 5.2 -0.8 0 -3.3 -0.9 -5.5 -1.9z"/>
  <path d="M159.8 75.3 c1.8 -0.2 4.5 -0.2 6 0 1.5 0.2 0 0.4 -3.3 0.4 -3.3 0 -4.5 -0.2 -2.7 -0.4z"/>
 </g>
 <g fill="#823c20">
  <path d="M192.5 191 c-1.2 -0.4 -2.7 -1.6 -3.5 -2.6 -1.4 -1.6 -1.3 -1.7 1.9 -1.1 3.2 0.7 3.3 0.6 2.7 -2.1 -2.1 -9.3 -2.2 -8.9 2 -9.5 2.2 -0.3 6.5 -0.9 9.6 -1.2 l5.7 -0.6 1.9 -5.2 c1.1 -2.9 2.3 -7.1 2.7 -9.4 0.4 -2.7 1.2 -4.3 2.1 -4.3 1.7 0 1.7 0.8 -0.1 9.4 -1.8 8.7 -3.5 11.2 -8.5 12.7 -4.5 1.4 -4.6 1.6 -2.5 4.5 1.6 2.4 1.1 3.4 -1.7 3.4 -1.5 0 -1.7 0.4 -0.9 1.9 1.3 2.4 0.5 3.1 -3.9 3.1 -2 0 -4 0.4 -4.5 0.9 -0.6 0.5 -1.9 0.5 -3 0.1z"/>
  <path d="M175.4 188.8 c-0.3 -0.5 -1.6 -0.7 -2.8 -0.4 -1.2 0.3 -3.2 -0.1 -4.4 -1 -1.2 -0.8 -5.8 -2.1 -10.3 -2.9 -10.4 -1.9 -18.8 -5.8 -26.3 -12.3 -3.3 -2.9 -6.3 -5.2 -6.8 -5.2 -0.5 0 -3.7 -1.3 -7.1 -2.9 -3.4 -1.6 -7.7 -3.2 -9.5 -3.6 -2.6 -0.5 -3.7 -1.5 -4.8 -4.1 -2.2 -5.4 -1.5 -13.4 1.2 -13.4 1 0 1.4 1.6 1.4 6.3 l0 6.2 5.1 2.3 c2.8 1.2 5.5 2.2 6 2.2 0.5 0 0.9 0.4 0.9 0.9 0 0.5 1.4 1.1 3 1.3 1.6 0.3 3 0.2 3 0 0 -0.2 -1.8 -3.7 -4 -7.7 -3.8 -6.9 -4.9 -10.5 -3.2 -10.5 0.4 0 1.4 1.7 2.4 3.8 l1.6 3.7 0.1 -11.7 c0.2 -22.4 7.1 -36.7 21.3 -43.9 10.1 -5.2 20.7 -6.1 32.6 -3 13 3.4 21.9 10.8 27.3 22.7 3.6 7.9 4.7 13.3 5.3 25.2 0.3 8.5 -0.3 11.4 -1.8 7.7 -1 -2.8 -2.3 -1.5 -2.9 2.8 -0.3 2.4 -0.9 5.2 -1.2 6.2 -0.5 1.5 0.1 1.2 2.1 -1 1.7 -1.8 2.5 -2.3 2.1 -1.2 -0.4 1 -0.7 2.5 -0.7 3.3 0 0.8 -1 1.4 -2.3 1.4 -1.8 0 -2.9 1.1 -4.7 4.8 -3.6 7.2 -5.9 10.2 -8.2 10.2 -2 0 -1.9 -0.1 0.5 -3.4 8.3 -10.8 8.8 -31.5 1.1 -46.9 -1.5 -2.8 -2.7 -5.3 -2.8 -5.4 -0.1 -0.1 -4.4 1.1 -9.4 2.8 -9.1 2.9 -27.2 5.2 -27.2 3.4 0 -0.5 0.7 -1.7 1.7 -2.7 1.9 -2.1 1.6 -2.1 -6.2 -0.7 -13 2.4 -20.6 8.9 -23 19.7 -0.3 1.7 -1.1 3.2 -1.7 3.2 -0.7 0 -0.7 0.4 -0.1 1.3 0.6 0.6 1.3 3.7 1.6 6.8 0.7 7.2 3.3 12.2 9.4 18.1 9 8.8 19.5 12.3 34.4 11.6 7.7 -0.4 9.4 -0.8 13.8 -3.6 l5.1 -3.1 0 2.4 c0 1.6 -0.6 2.5 -1.6 2.5 -1.3 0 -1.4 0.3 -0.5 1.4 0.7 0.8 1.1 2.7 0.9 4.3 -0.3 2.6 -0.6 2.8 -5.1 2.9 -2.6 0.1 -5 -0.3 -5.3 -0.8z m24.1 -61.3 c-0.8 -3 -1.8 -6.2 -2.1 -7.2 -0.3 -1 0.4 -0.4 1.6 1.2 2 2.8 2.1 2.8 1.4 0.5 -2.7 -9.8 -11.3 -20.4 -20.1 -24.6 -13 -6.4 -35.7 -3.3 -44.3 6.1 l-2.5 2.7 5.2 -2.6 c6.8 -3.4 13.8 -4.9 18.8 -4 l4 0.7 -7 1.4 c-10.8 2.2 -19.9 7.2 -22.6 12.7 -1 1.7 -0.9 1.9 0.2 0.8 1.8 -1.7 3 -1.5 2.3 0.3 -0.8 1.9 -0.5 1.9 3.5 -0.1 3.9 -1.9 5.1 -1.2 2.6 1.6 -2.3 2.6 -1.7 2.5 5 -0.4 5.3 -2.4 6.8 -2.3 4.3 0.2 -1.6 1.6 10.3 0.5 19.4 -1.8 5 -1.2 6.5 -1.3 5.7 -0.3 -1.5 1.7 -12.8 7.3 -15 7.3 -1 0 -2.1 0.5 -2.4 1 -1.7 2.8 15.7 -2 25.1 -6.8 6.2 -3.3 7.4 -3.7 7.4 -2.2 0 0.9 2 6 4.4 11.2 2.4 5.2 4.8 11.2 5.3 13.4 l0.8 3.9 0.3 -4.8 c0.2 -2.6 -0.4 -7.2 -1.3 -10.2z"/>
  <path d="M155.3 176 c-4.1 -0.9 -8.8 -2.8 -8.1 -3.5 0.2 -0.2 2.8 0.3 5.8 1.1 3 0.8 6.5 1.4 7.7 1.4 1.3 0 2.3 0.5 2.3 1 0 1.1 -1.7 1.1 -7.7 0z"/>
  <path d="M165 176.1 c0 -0.5 1.6 -1.1 3.5 -1.3 3.9 -0.4 4.8 0.6 1.3 1.6 -3.2 0.8 -4.8 0.7 -4.8 -0.3z"/>
  <path d="M173 174.9 c0 -0.5 1.2 -1.4 2.6 -1.9 1.4 -0.6 2.3 -1.4 1.9 -1.9 -0.3 -0.6 0.8 -2.4 2.5 -4.1 1.6 -1.7 3 -3.6 3 -4.1 0 -0.6 0.7 -0.8 1.6 -0.5 1.1 0.4 1.5 0.1 1.2 -1.2 -0.5 -2.5 -10.2 -7 -19.1 -8.7 -7.9 -1.5 -21.6 -1.8 -27.2 -0.6 -3.8 0.8 -4.8 4.1 -1 3.4 2 -0.4 2.5 -0.1 2.5 1.6 0 1.2 -0.6 2.1 -1.5 2.1 -0.8 0 -1.5 0.7 -1.5 1.5 0 0.8 0.7 1.5 1.5 1.5 1 0 1.5 1 1.5 2.8 0 2 0.7 3.3 2.5 4.2 2.5 1.3 3.4 3 1.6 3 -0.5 0 -2.4 -1.2 -4.1 -2.6 -6.6 -5.6 -9.3 -16.1 -4.7 -18.5 3.5 -2 25.8 -1.6 34.2 0.5 7.8 1.9 15.3 5.4 16.8 7.7 1.6 2.5 0 6.6 -4.2 10.8 -3.8 3.8 -10.1 6.9 -10.1 5z"/>
  <path d="M169.5 161 c-3.3 -1 -7.5 -1.9 -9.2 -1.9 -2.6 -0.1 -3.3 -0.5 -3.3 -2.1 0 -2.4 0.9 -2.5 10.8 -0.4 8.9 1.8 14.2 3.8 14.2 5.3 0 1.6 -5.6 1.1 -12.5 -0.9z"/>
  <path d="M179 151.5 c-1.4 -1.7 -0.5 -8.9 1 -8 1.4 0.9 6 -1.7 6 -3.3 0 -0.9 0.3 -1.3 0.6 -1 0.9 1 -1.5 12.1 -2.9 13 -1.8 1.2 -3.3 1 -4.7 -0.7z"/>
  <path d="M190 145.1 c0 -2.8 -0.8 -4.8 -2.6 -7 -2.8 -3.4 -5.8 -3.9 -9.2 -1.6 -1.7 1.3 -2.1 1.3 -1.6 0.2 0.6 -1.7 4.7 -3.7 7.3 -3.7 2.9 0 6.8 3.7 8.1 7.5 0.7 2 1.8 3.5 2.7 3.5 1.3 0 1.3 0.3 0.3 1.6 -0.8 0.8 -2.2 2 -3.2 2.5 -1.6 0.9 -1.8 0.5 -1.8 -3z"/>
  <path d="M140 146.1 c0 -1.2 -0.4 -2.1 -1 -2.1 -0.5 0 -1 -0.9 -1 -2 0 -1.3 1.2 -2.5 3.7 -3.5 2 -0.8 3.8 -1.3 4.1 -1 0.3 0.3 0.1 2.6 -0.4 5.3 -0.7 3.8 -1.3 4.8 -3.1 5 -1.8 0.3 -2.3 -0.2 -2.3 -1.7z"/>
  <path d="M131.1 139.2 c-2.5 -3.6 -2.6 -4.3 -0.6 -3.5 0.9 0.3 2.2 -0.2 3 -1.3 1.4 -1.7 1.4 -1.5 0.9 2.6 -0.4 2.5 -0.8 4.6 -0.9 4.8 -0.2 0.2 -1.2 -1 -2.4 -2.6z"/>
  <path d="M103 140 c0 -0.5 0.5 -3.2 1.1 -6 0.7 -3.3 1.6 -5 2.6 -5 1.2 0 1.3 0.8 0.8 4.3 -1 6.4 -1.5 7.7 -3.1 7.7 -0.8 0 -1.4 -0.4 -1.4 -1z"/>
  <path d="M214.6 129.9 c-1.1 -5.2 -1.4 -8.4 -0.8 -8.8 0.6 -0.3 1.2 -1.7 1.3 -3.1 0.3 -1.9 1.1 -2.6 3.2 -2.8 3.4 -0.4 3.5 1.1 0.1 3.5 l-2.6 1.9 1.6 7.7 c1.9 9.2 1.9 9.7 0.3 9.7 -0.9 0 -2 -2.9 -3.1 -8.1z"/>
  <path d="M149.1 133.8 c-0.9 -1.5 -1.5 -1.8 -2.1 -0.9 -0.5 0.9 -0.9 0.8 -1.3 -0.4 -0.5 -1.1 -1.7 -1.5 -4.7 -1.3 -5.2 0.3 -6 -0.7 -1.7 -2.1 4.2 -1.4 7.9 -0.2 10.3 3.4 0.9 1.4 1.5 2.8 1.2 3 -0.2 0.2 -1 -0.5 -1.7 -1.7z"/>
  <path d="M188 132 c-0.8 -0.5 -3.1 -1 -5 -1 -2.6 0 -3.1 -0.3 -2 -1 2.3 -1.5 4.6 -1.2 7.1 1 2.5 2 2.4 2.6 -0.1 1z"/>
  <path d="M137.4 126.5 c2.6 -2 8 -1.9 9.6 0 1.1 1.4 1 1.4 -1.5 0.5 -1.8 -0.7 -3.9 -0.7 -6.4 -0.1 -3.3 0.9 -3.4 0.9 -1.7 -0.4z"/>
  <path d="M108.5 119.3 c0.9 -2.1 2.7 -5.7 4.1 -8.1 1.4 -2.3 2.2 -4.7 1.9 -5.2 -0.3 -0.6 0.3 -1 1.4 -1 1.4 0 2.1 0.6 2.1 1.9 0 2.2 -3.1 8.1 -4.2 8.1 -0.5 0 -0.8 0.7 -0.8 1.5 0 2.8 -2.4 6.5 -4.2 6.5 -1.7 0 -1.7 -0.2 -0.3 -3.7z"/>
  <path d="M214.4 109.8 c-0.4 -1.3 -1.7 -3.6 -3 -5.1 -1.3 -1.6 -2.4 -3.7 -2.4 -4.8 0 -1 -0.6 -1.9 -1.3 -1.9 -2.2 0 -8.9 -7.6 -8.5 -9.6 0.3 -1.5 1.6 -0.7 6.6 4.5 5.3 5.4 13.2 16.5 13.2 18.5 0 1.7 -4 0.3 -4.6 -1.6z"/>
  <path d="M114 98 c2.8 -3.9 4 -4.6 4 -2.1 0 3.5 -1.2 5.1 -3.7 5.1 l-2.4 0 2.1 -3z"/>
  <path d="M120.5 91 c2.6 -2.9 11.5 -8.4 12.3 -7.6 1.1 1.1 -1.3 4.1 -3.7 4.4 -1.1 0.2 -2.1 0.8 -2.1 1.4 0 1.7 -3.2 3.7 -5.9 3.8 -2.3 0 -2.4 -0.1 -0.6 -2z"/>
  <path d="M187.5 83.5 c-2.7 -1.3 -7.4 -2.9 -10.2 -3.6 -3.2 -0.7 -5.3 -1.8 -5.3 -2.6 0 -1.6 1.2 -1.6 7.9 0.2 6.3 1.6 16.1 6.3 16.1 7.6 0 1.5 -3.2 0.9 -8.5 -1.6z"/>
  <path d="M136.2 81.8 c0.3 -0.7 1.9 -1.8 3.6 -2.5 2.9 -1.2 3.2 -1.1 3.2 0.6 0 2 -1.8 3.1 -5.2 3.1 -1.1 0 -1.8 -0.5 -1.6 -1.2z"/>
  <path d="M147 78.7 c0 -1.6 1.6 -2.1 10.3 -3.3 4.3 -0.6 4.7 -0.5 4.7 1.5 0 1.8 -0.6 2.1 -4.4 2.1 -2.4 0 -5.8 0.3 -7.5 0.6 -2.4 0.5 -3.1 0.3 -3.1 -0.9z"/>
  <path d="M165.3 78.3 c-2.7 -0.5 -3.1 -3.3 -0.5 -3.3 3.3 0 6.2 1.2 6.2 2.6 0 1.4 -1.4 1.5 -5.7 0.7z"/>
 </g>
 <g fill="#791d1d">
  <path d="M182.1 190.4 c-1.6 -1.2 -2.6 -1.3 -3.4 -0.5 -0.8 0.8 -1.5 0.6 -2.8 -0.5 -1 -0.9 -2.4 -1.4 -3.1 -1.1 -0.7 0.2 -3 -0.4 -5 -1.4 -2.1 -1.1 -4.9 -1.9 -6.3 -1.9 -1.4 0 -2.5 -0.4 -2.5 -1 0 -0.6 3 -1 7.1 -1 10.4 0 14.5 -1.6 21 -8 7.4 -7.3 9.9 -13.7 9.9 -25.8 0 -9.2 -1.3 -15.7 -4.8 -23.5 -1.1 -2.6 -1.6 -4.7 -1.1 -4.7 2.8 0 7.8 18.6 8 29.3 0.1 9.3 2 1.3 2.2 -9.1 0.1 -8.7 1.5 -10.3 1.6 -2 0.1 2 0.6 4 1.3 4.4 1.8 1.1 0.3 -15.1 -2.1 -21.8 -3.6 -10.5 -12.8 -21 -21.7 -24.9 -15.4 -6.8 -37.7 -2.8 -46.7 8.4 -5.6 6.9 -6.6 9.8 -1.5 4.6 5.7 -5.9 11.8 -8.8 19.9 -9.4 l6.4 -0.5 -5.7 1.5 c-7.9 2 -14.1 5.1 -18.1 9 -4.4 4.3 -9.7 14.8 -10.4 20.6 l-0.5 4.4 2 -3 c4.7 -7.3 11.9 -11.2 24 -13 7.7 -1.2 14.3 -2.5 20.7 -4.1 1.1 -0.2 0.4 0.4 -1.5 1.4 -1.9 1.1 -4.9 2.3 -6.6 2.6 -1.8 0.4 -4 1.6 -5 2.7 -1.7 1.8 -1.6 1.9 1.5 1.9 3.7 0 21.8 -4.4 27 -6.6 2.8 -1.2 3.6 -1.2 4.3 -0.2 1.3 2.1 0.9 2.5 -1.9 2.5 -1.6 0 -6.7 1.1 -11.4 2.5 -4.7 1.5 -12.3 3 -16.8 3.4 l-8.3 0.7 1.8 -2.8 1.8 -2.8 -4.9 0.6 c-8.2 1.2 -14.1 3.6 -18.8 7.8 -6.1 5.3 -8.1 11.2 -7.5 22.5 0.4 7.8 0.7 8.8 4.4 14.1 2.2 3.3 6.2 7.3 9.1 9.3 2.9 1.9 5.2 3.8 5.3 4.3 0 1.4 -5.5 -2.1 -10.6 -6.5 -5 -4.5 -15.2 -9.9 -23.6 -12.4 -4.3 -1.3 -4.8 -1.9 -5.8 -5.4 -2.6 -9.5 3.1 -33.4 10.7 -45.2 1.6 -2.5 1.6 -2.8 0 -4.6 -2.8 -3.1 -2 -5 5.2 -12.1 7.8 -7.7 19.5 -14.1 29.6 -16.2 8.3 -1.7 22.7 -1.5 30.5 0.6 15 3.9 27.8 13.9 37.2 29.2 2.7 4.2 4.8 8 4.8 8.5 0 0.4 -1.2 1.8 -2.6 3.2 l-2.7 2.4 1.7 8.1 c3 14.9 1.5 36.4 -3.1 44.1 -1.2 2 -3 3.4 -5.5 4.1 -4.2 1.1 -4.5 1.5 -2.3 4.6 1.5 2.1 1.4 2.3 -1 2.9 -2.8 0.7 -3.1 1.4 -1.4 3.1 0.9 0.9 0.5 1.4 -1.5 1.9 -1.4 0.3 -3.3 0.4 -4.1 0.1 -0.8 -0.4 -1.7 -0.2 -2 0.3 -1 1.6 -4.1 1.1 -6.9 -1.1 -3 -2.3 -3.1 -2.3 -4.3 0.9 -0.8 2.1 -1 2.1 -3.2 0.6z m11.9 -3.8 c0 -2.1 -2.1 -7.6 -3 -7.6 -0.4 0 -2.2 0.6 -3.9 1.3 l-3.1 1.3 4.2 3.1 c4.9 3.6 5.8 3.9 5.8 1.9z m-13.5 -0.6 c1.8 1.5 3 0.7 2.1 -1.5 -0.4 -1.3 -1.4 -1.4 -4.3 -0.9 -4.6 0.8 -5.2 1.2 -3.3 2.4 0.9 0.5 1.9 0.5 2.7 -0.2 0.9 -0.7 1.7 -0.7 2.8 0.2z m17.3 -3.5 c-1.2 -2.4 -2.3 -4.3 -2.4 -4.2 -0.8 0.7 2.2 8.7 3.3 8.7 0.9 0 0.6 -1.3 -0.9 -4.5z m4.2 -2.6 c-0.7 -1.1 -1.4 -1.8 -1.7 -1.5 -0.8 0.8 0.5 3.6 1.7 3.6 0.7 0 0.7 -0.6 0 -2.1z m6.6 -6.4 c4.7 -1.9 6.5 -8.1 7.1 -23.7 0.8 -19.4 -3.3 -34.1 -12.2 -44.6 -2 -2.3 -3.2 -4.2 -2.7 -4.2 1.4 0 9 8.8 11.1 12.7 1.1 2.3 2 3 3 2.4 2 -1.3 0.8 -4.9 -4.4 -12.4 -2.9 -4.3 -4 -6.7 -3.2 -7 0.7 -0.3 0.4 -0.6 -0.6 -0.6 -1 -0.1 -4.7 -2.6 -8.4 -5.5 -11.4 -9.5 -25.2 -13.3 -41.7 -11.6 -13.7 1.4 -23.7 5.8 -33.5 14.6 -6.1 5.4 -7.8 8.1 -6.2 9.7 0.8 0.8 2.4 -0.3 5.7 -3.7 6.5 -6.5 10 -8.1 4.2 -1.8 -13.2 14.2 -20.8 32.4 -20.8 49.9 0 5.1 0.4 6.7 2 8 2.1 1.8 16 7.5 16 6.6 0 -0.3 -1.8 -3.8 -4 -7.8 -4 -7.2 -4.9 -10.5 -3 -10.5 0.6 0 1 0.9 1 1.9 0 1 0.9 2.9 2.1 4.2 1.6 1.9 1.9 2 1.5 0.6 -0.3 -1 -0.6 -4.4 -0.6 -7.4 0 -4.8 -0.2 -5.4 -1.5 -4.3 -0.8 0.7 -1.5 1.9 -1.5 2.6 0 0.8 -0.4 1.4 -1 1.4 -0.5 0 -1 -0.7 -1 -1.6 0 -2.4 1.9 -5.4 3.5 -5.4 1 0 1.5 -1.1 1.5 -3.5 0 -10.4 5.6 -24 12.4 -30.3 11.1 -10.2 25.6 -13.5 41.4 -9.3 13 3.4 21.9 10.8 27.3 22.6 3.8 8.5 4.6 12.7 5.4 27.6 0.6 12.6 0.6 12.7 -2.1 15.8 -1.4 1.8 -3.9 3.8 -5.5 4.7 -1.6 0.8 -2.9 2 -2.9 2.8 0 0.7 -1.4 3.2 -3 5.5 l-3 4.1 7.2 -0.6 c4 -0.4 8.7 -1.2 10.4 -1.9z m-2.6 -22 c0 -2.9 -0.9 -5.5 -2 -5.5 -0.4 0 -1 1.9 -1.4 4.3 -0.3 2.3 -0.8 5.3 -1.2 6.7 l-0.6 2.5 2.6 -2.8 c1.4 -1.5 2.6 -3.9 2.6 -5.2z"/>
  <path d="M149.8 182.8 c-2.1 -0.6 -3.8 -1.4 -3.8 -1.8 0 -0.8 9.9 1.6 10.9 2.6 0.7 0.7 -3.2 0.2 -7.1 -0.8z"/>
  <path d="M156.4 176 c-9.9 -2.1 -17.2 -6.9 -20.3 -13.4 -4 -8.1 -2.2 -12.7 4.6 -12.5 l2.8 0.1 -3 1 c-3.3 1.2 -5.5 2.7 -5.5 3.7 0 0.4 3.8 0.5 8.5 0.3 6.8 -0.4 8.5 -0.2 8.5 0.9 0 0.8 0.3 2.4 0.6 3.6 0.6 2 0.1 2.3 -3.5 2.9 -2.3 0.4 -5.2 1.5 -6.4 2.5 -2.2 1.8 -2.2 1.8 -0.2 3.3 5.9 4.6 10.8 6.1 20.5 6.1 10.1 0 15.4 -1.4 14.4 -3.9 -1 -2.5 -7.7 -6.5 -13.1 -7.6 -3.4 -0.8 -5.3 -1.7 -5.3 -2.6 0 -0.8 -0.7 -1.4 -1.5 -1.4 -0.9 0 -1.5 -0.9 -1.5 -2.1 0 -1.9 0.4 -2 4.3 -1.4 8.5 1.3 9.7 1.7 9.8 3.3 0 1.1 0.2 1.2 0.6 0.5 0.7 -1.9 3 -1.6 9.6 1.1 4.2 1.8 5.7 2 5.7 1.1 0 -3 -9.1 -7.3 -20.5 -9.7 -3.7 -0.7 -5.1 -1.3 -3.8 -1.6 2.8 -0.4 16.2 3.2 21.3 5.8 2.1 1.1 4.1 2.9 4.5 3.9 1.2 3.9 -3.9 10.7 -10.4 14.1 -4.5 2.2 -14.8 3.3 -20.7 2z"/>
  <path d="M179.6 151.7 c-1.4 -1 -1.6 -2.1 -1.1 -5 0.4 -2 1.1 -3.5 1.5 -3.2 0.5 0.3 2.1 0 3.5 -0.5 l2.8 -1.1 -0.7 4.3 c-0.7 4 -2.1 6.8 -3.5 6.8 -0.4 0 -1.5 -0.6 -2.5 -1.3z"/>
  <path d="M190.4 144.8 c-0.2 -7 -7.6 -12.2 -12.4 -8.5 -0.9 0.6 -0.5 0.2 0.8 -1 2.7 -2.7 4.3 -2.8 8.1 -0.8 2.6 1.3 6.1 6.7 6.1 9.4 0 0.6 0.7 0.8 1.5 0.5 2.3 -0.9 1.8 0 -1.3 2.3 l-2.7 2 -0.1 -3.9z"/>
  <path d="M138.7 147.3 c-0.9 -0.9 -0.9 -5.5 0.1 -6.8 0.4 -0.5 2.2 -1.5 4 -2.2 l3.3 -1.2 -0.7 4.7 c-0.4 2.6 -1.2 5 -1.8 5.4 -1.4 1 -4.1 1 -4.9 0.1z"/>
  <path d="M131.2 138.9 c-1.4 -2.2 -1.5 -3.2 -0.3 -2.5 0.5 0.3 1.8 -1 2.9 -2.9 3.3 -5.4 12 -6.3 15.1 -1.5 1.4 2.2 1.4 2.4 0 1.3 -0.9 -0.7 -1.9 -1 -2.2 -0.6 -0.4 0.3 -0.7 0.1 -0.7 -0.5 0 -0.7 -1.5 -1.2 -3.5 -1.2 -4.1 0 -8.5 3.6 -8.5 6.9 0 2.8 -1.4 3.3 -2.8 1z"/>
  <path d="M187 131.5 c-1.4 -0.8 -3.4 -1.2 -4.5 -0.9 -1.7 0.4 -1.8 0.4 -0.3 -0.6 1.8 -1.1 6.1 0 7.3 1.9 0.8 1.4 0.6 1.3 -2.5 -0.4z"/>
  <path d="M139.3 125.8 c1.6 -1 6.5 -1 7 0 0.3 0.4 -1.4 0.7 -3.8 0.7 -2.4 0 -3.8 -0.3 -3.2 -0.7z"/>
 </g>
 <g fill="#560f11">
  <path d="M181.3 189.5 c-1.5 -1 -2.4 -1.2 -2.8 -0.5 -0.5 0.8 -1.5 0.6 -3 -0.4 -1.5 -1 -2.6 -1.2 -3 -0.6 -0.4 0.6 -2.1 0.3 -4.3 -0.9 -2 -1 -5.9 -2.2 -8.7 -2.5 -11.7 -1.7 -18.4 -4.6 -26.5 -11.6 -5.5 -4.7 -17.7 -11.1 -23.6 -12.4 -6 -1.3 -6.8 -3.3 -6.1 -14.8 0.7 -12.6 3.1 -22 8.2 -31.6 3.5 -6.8 3.7 -7.4 2.1 -9.1 -0.9 -0.9 -1.6 -2.4 -1.6 -3.2 0 -1.5 10.5 -12.5 14.5 -15.3 10.2 -7.1 22.3 -10.6 36.1 -10.6 18.5 0 30.4 4.7 42.5 16.9 6.5 6.6 15.9 20.2 15.9 23.2 0 0.4 -1.4 1.6 -3.1 2.4 -2.2 1.2 -2.9 2.1 -2.4 3.3 3.4 8.7 4.4 28.3 2.1 40.5 -2.3 11.7 -4.3 14.7 -10.2 14.7 -2.8 0 -3.1 1.6 -0.8 4.8 1.2 1.7 1.2 2.2 0.2 2.2 -0.7 0 -1.9 0.4 -2.7 0.9 -1.2 0.8 -1.2 1.2 -0.2 2.5 1.2 1.4 0.8 1.6 -3.3 1.6 -2.5 0 -4.6 0.5 -4.6 1 0 1.7 -3 1.1 -6.1 -1.1 -3 -2.1 -4.9 -1.9 -4.9 0.7 0 1.8 -1 1.8 -3.7 -0.1z m2 -5.3 c-0.5 -1.1 -1.6 -1.2 -5.2 -0.7 -2.5 0.4 -4.8 0.9 -5.1 1.1 -1 1.1 2.7 2.4 5.2 1.8 1.5 -0.3 2.9 0 3.3 0.6 1 1.6 2.5 -0.8 1.8 -2.8z m10.7 1 c0 -4.1 -2.2 -6.6 -5.1 -5.9 -3.3 0.9 -5.7 2.7 -4.3 3.3 0.6 0.3 2.6 1.6 4.4 2.9 4.3 3.2 5 3.1 5 -0.3z m4.5 -1.9 c-1.8 -4.3 -4.1 -7 -3.2 -3.8 0.4 1.1 0.9 3.2 1.3 4.8 0.3 1.5 1.2 2.7 2 2.7 1.2 0 1.2 -0.6 -0.1 -3.7z m-19.7 -1.9 c6.4 -2.6 11 -7.3 14.7 -14.8 3.4 -6.8 3.6 -7.7 3.6 -17.1 0 -10.7 -1.6 -17.5 -5.8 -25.8 -1.8 -3.6 -2.9 -4.8 -4.1 -4.4 -0.9 0.3 -5.5 1.6 -10.2 3 -4.7 1.3 -12.3 2.8 -17 3.2 -8.3 0.7 -8.4 0.6 -6.7 -1.2 3.2 -3.6 2.1 -4.1 -5.2 -2.8 -16.8 3.3 -24.5 11.9 -24.4 27.7 0 6.3 0.5 8.8 2.7 13.2 5 10.1 18 19 30.5 20.7 7 0.9 17.6 0.1 21.9 -1.7z m23.2 -1.4 c-0.6 -1.1 -1.5 -2 -2.1 -2 -0.6 0 -0.6 0.7 0.1 2 0.6 1.1 1.5 2 2.1 2 0.6 0 0.6 -0.7 -0.1 -2z m-1.2 -4.6 c9.3 -0.9 11.4 -2.5 13.7 -10.6 2.5 -8.5 2.5 -27.5 0 -37.3 -1.9 -7.6 -5.3 -15.2 -9.2 -20.2 -1.3 -1.8 -2 -3.3 -1.6 -3.3 0.7 0 4.3 4.7 8.7 11.3 1.2 1.9 4.6 1.5 4.6 -0.5 0 -2.4 -6.7 -12.5 -12.4 -18.6 -6.9 -7.4 -13.4 -11.8 -22.1 -15.2 -5.2 -2.1 -7.7 -2.4 -19 -2.3 -11.4 0 -13.9 0.3 -20.4 2.6 -4 1.4 -9.7 4.1 -12.5 6 -4.9 3.3 -15.6 13.4 -15.6 14.8 0 0.4 0.7 1.2 1.5 1.9 1.2 1 2.2 0.4 6.1 -3.6 5.4 -5.8 4.7 -4.1 -1.3 3.4 -9.2 11.3 -15.3 27.7 -15.6 42.1 -0.1 6.9 0.2 8.4 1.8 10 1.8 1.8 14.4 7.1 16.7 7.1 0.5 0 -0.3 -2.1 -1.8 -4.7 -7.5 -13.2 -8.1 -16.9 -3.6 -21.1 2.2 -2.1 2.9 -3.7 3.1 -7.6 1.4 -25.1 21.4 -41 47 -37.5 13.7 1.9 23.8 8.1 30 18.4 5.4 8.9 7.2 15.5 8.2 30.2 1.1 15.4 0.5 17.7 -6.1 21.8 -2.2 1.4 -4 2.9 -4 3.4 0 0.5 -1.6 3.2 -3.5 6.1 -2.5 3.7 -3 5 -1.7 4.6 0.9 -0.3 5 -0.8 9 -1.2z m5.4 -22.9 c0.5 -2.5 -0.7 -6.5 -2 -6.5 -0.9 0 -3.2 9.7 -3.2 12.9 0.1 2.2 4.7 -3.5 5.2 -6.4z m-4.7 -7.1 c0.8 -6.3 1.3 -8.3 1.4 -5.6 0.2 6.8 2.1 4.9 2.1 -2.1 0 -17.1 -9.6 -33.7 -23.4 -40.6 -10.6 -5.2 -25.4 -5.1 -37.4 0.4 -6.6 3 -10.3 6.3 -14.3 12.4 -4.4 6.8 -3.5 7.2 2.1 0.9 5.4 -6.1 11.4 -9.2 19.5 -10.1 l5 -0.6 -4.5 1.3 c-11.8 3.5 -17.5 7.4 -22.4 15.5 -3 4.9 -7.3 17.7 -6.4 18.7 0.2 0.2 1.9 -1.8 3.8 -4.4 4.7 -6.3 12 -9.9 23.5 -11.6 5 -0.8 11.2 -2 13.8 -2.6 6.8 -1.8 6.8 -0.7 0 1.5 -5.3 1.8 -8.3 3.8 -8.3 5.6 0 1.1 7.7 -0.2 19 -3.3 5.8 -1.6 11.5 -3.1 12.8 -3.5 1.9 -0.5 2.5 0.2 4.7 5 3.3 7.6 5.2 15.6 6.1 25.5 0.4 4.5 0.9 8.1 1.1 7.8 0.2 -0.2 1 -4.8 1.8 -10.2z m-80.2 -0.1 c-0.6 -7.5 -1 -8.4 -2.3 -6.3 -1.5 2.3 -1.2 8.3 0.6 10.8 0.8 1.2 1.7 2.2 1.8 2.2 0.2 0 0.1 -3 -0.1 -6.7z"/>
  <path d="M156.7 176 c-13.4 -2.4 -24.9 -14.3 -22.2 -23 0.9 -2.7 5.5 -3.3 20.8 -2.7 9.9 0.4 14.8 1 19.7 2.7 8 2.7 11.8 4.9 12.6 7.2 1.1 3.7 -5.2 11.5 -11.6 14.1 -4.7 2 -13.4 2.7 -19.3 1.7z m18.3 -2.5 c1.7 -0.9 3 -2 3 -2.5 0 -1.8 -7.4 -6.9 -11.6 -7.9 -5.6 -1.4 -17 -1.3 -21.4 0.2 -6.5 2.2 -3.6 6.6 6.9 10.3 5.1 1.9 19.5 1.8 23.1 -0.1z m9 -8 c0 -0.9 -7.9 -5.5 -9.5 -5.5 -1.6 0 0 3.9 2.7 6.7 3 3.1 3.3 3.2 5 1.6 1 -0.9 1.8 -2.1 1.8 -2.8z m-38.4 -4.5 c0.7 0 1.8 -0.9 2.4 -2 1 -1.9 0.8 -2 -5 -2 -6.9 0 -8.3 1.4 -5.6 5.5 l1.7 2.6 2.6 -2.1 c1.4 -1.1 3.2 -2 3.9 -2z m41.4 1.6 c0 -3.6 -5.7 -6.8 -16.7 -9.7 -10 -2.5 -31.3 -2.7 -33.7 -0.3 -0.9 0.8 -1.6 1.9 -1.6 2.3 0 0.4 4.6 0.6 10.3 0.3 12.1 -0.5 26 1.6 33.9 5.2 5.1 2.3 7.8 3.1 7.8 2.2z"/>
  <path d="M179.2 150.8 c-1.4 -1.8 -0.3 -7.8 1.3 -7.2 0.8 0.3 2.3 0 3.5 -0.6 2.2 -1.2 2.2 -1.1 1.5 3.2 -0.4 2.3 -0.9 4.6 -1.2 5.1 -0.7 1.1 -4 0.8 -5.1 -0.5z"/>
  <path d="M139 146.5 c-0.7 -0.8 -0.9 -2.6 -0.6 -4.2 0.5 -2.1 1.5 -3.1 4.1 -3.9 l3.5 -1.1 -0.6 4.1 c-1 6.3 -3.6 8.4 -6.4 5.1z"/>
  <path d="M190.6 144.2 c-0.9 -5.6 -4.8 -9.5 -9.1 -9 -1.8 0.2 -3.1 0 -2.9 -0.4 0.3 -0.4 2.2 -0.8 4.3 -0.8 4.3 0 7 2.4 9.4 8.2 1.3 3 1.3 3.9 0.3 4.8 -1.1 0.8 -1.5 0.2 -2 -2.8z"/>
  <path d="M131.2 139 c-1.6 -2.6 -1.5 -3.1 0.3 -2.4 0.9 0.4 1.5 0 1.5 -0.8 0 -0.9 1.1 -2.7 2.5 -4.2 2.8 -3.1 8.9 -3.6 12.1 -1 1.8 1.5 1.8 1.5 -0.6 0.8 -4.6 -1.2 -8 -0.7 -10.5 1.6 -1.4 1.3 -2.5 3.1 -2.5 3.9 0 3.1 -1.5 4.2 -2.8 2.1z"/>
 </g>
</svg>